{"canvas_config":{"background":null,"height":1080,"ratio":"original","width":1920},"color_space":0,"config":{"adjust_max_index":1,"attachment_info":[],"combination_max_index":1,"export_range":null,"extract_audio_last_index":1,"lyrics_recognition_id":"","lyrics_sync":true,"lyrics_taskinfo":[],"maintrack_adsorb":true,"material_save_mode":0,"multi_language_current":"none","multi_language_list":[],"multi_language_main":"none","multi_language_mode":"none","original_sound_last_index":1,"record_audio_last_index":1,"sticker_max_index":1,"subtitle_keywords_config":null,"subtitle_recognition_id":"","subtitle_sync":true,"subtitle_taskinfo":[],"system_font_list":[],"video_mute":false,"zoom_info_params":{"offset_x":0.0,"offset_y":0.0,"zoom_ratio":0.99999}},"cover":{"cover_draft_id":"","cover_template":null,"sub_type":"","type":"web_cover","web_cover_info":{"materials":[{"extra_info":"7b 5c 22 69 6d 61 67 65 58 55 72 69 5c 22 3a 5c 22 74 6f 73 2d 6d 61 6c 69 76 61 2d 69 2d 64 61 6e 61 61 34 67 66 68 74 2d 75 73 2f 37 32 31 34 61 66 37 65 66 66 36 64 34 31 31 65 38 36 32 34 65 63 65 65 32 63 36 34 37 35 30 32 5c 22 7d","file_name":"ecc6643f-dd9e-486e-817c-0c346acd180c.jpg","id":"89A4E6B2-8764-46c2-AD49-FC9617EF028D","md5":"1e28fff920ed788485ac3c7722ba28a9","path":"##_draftpath_placeholder_0E685133-18CE-45ED-8CB8-2904A212EC80_##/Resources/cover/Asset/ecc6643f-dd9e-486e-817c-0c346acd180c.jpg","thumbnail_height":1080,"thumbnail_width":1920}],"origin_image_path":"##_draftpath_placeholder_0E685133-18CE-45ED-8CB8-2904A212EC80_##/Resources/cover/web_cover_origin_img.jpg","web_cover_json_path":"##_draftpath_placeholder_0E685133-18CE-45ED-8CB8-2904A212EC80_##/Resources/cover/web_cover.json"}},"create_time":0,"duration":96700000,"extra_info":null,"fps":30.0,"free_render_index_mode_on":false,"group_container":null,"id":"7A6B3843-828B-47ea-AA45-38766BA3F4FF","is_drop_frame_timecode":false,"keyframe_graph_list":[],"keyframes":{"adjusts":[],"audios":[],"effects":[],"filters":[],"handwrites":[],"stickers":[],"texts":[],"videos":[]},"last_modified_platform":{"app_id":359289,"app_source":"cc","app_version":"5.9.0","device_id":"c87871b01ed15b67aca19f3efea983b4","hard_disk_id":"98697f5b2672733057711c84e4b517c3","mac_address":"09861091e4eef2367b35d8703476edfc,3ab780bc59d11a00e1ba676c31de1115","os":"windows","os_version":"10.0.26100"},"lyrics_effects":[],"materials":{"ai_translates":[],"audio_balances":[],"audio_effects":[],"audio_fades":[],"audio_track_indexes":[],"audios":[{"ai_music_generate_scene":0,"ai_music_type":0,"aigc_history_id":"","aigc_item_id":"","app_id":0,"category_id":"","category_name":"local","check_flag":1,"copyright_limit_type":"none","duration":90233333,"effect_id":"","formula_id":"","id":"B8432A95-8951-4417-9C36-9B0CC234322F","intensifies_path":"","is_ai_clone_tone":false,"is_ai_clone_tone_post":false,"is_text_edit_overdub":false,"is_ugc":false,"local_material_id":"9c6ab178-fef0-455d-9a6c-27879744071c","lyric_type":0,"moyin_emotion":"","music_id":"9d2bdab0-4253-4026-a846-d80165f89ed2","music_source":"","name":"ghosts-of-failure.mp3","path":"C:/Users/Computer/dev/music/maven.github-repo-downloader-demo/target/mixcraft.ghosts-of-failure/ghosts-of-failure.mp3","pgc_id":"","pgc_name":"","query":"","request_id":"","resource_id":"","search_id":"","similiar_music_info":{"original_song_id":"","original_song_name":""},"sound_separate_type":"","source_from":"","source_platform":0,"team_id":"","text_id":"","third_resource_id":"","tone_category_id":"","tone_category_name":"","tone_effect_id":"","tone_effect_name":"","tone_emotion_name_key":"","tone_emotion_role":"","tone_emotion_scale":0.0,"tone_emotion_selection":"","tone_emotion_style":"","tone_platform":"","tone_second_category_id":"","tone_second_category_name":"","tone_speaker":"","tone_type":"","tts_generate_scene":"","tts_task_id":"","type":"extract_music","video_id":"","wave_points":[]}],"beats":[{"ai_beats":{"beat_speed_infos":[],"beats_path":"","beats_url":"","melody_path":"","melody_percents":[0.0],"melody_url":""},"enable_ai_beats":false,"gear":404,"gear_count":0,"id":"5E1D72B4-A78D-4426-A16E-B43DC6161DC4","mode":404,"type":"beats","user_beats":[],"user_delete_ai_beats":null}],"canvases":[{"album_image":"","blur":0.0,"color":"","id":"E36195B1-200C-455f-8103-356D8D795D5B","image":"","image_id":"","image_name":"","source_platform":0,"team_id":"","type":"canvas_color"},{"album_image":"","blur":0.0,"color":"","id":"84919F28-D7CD-4514-BCE8-3900D61E48EA","image":"","image_id":"","image_name":"","source_platform":0,"team_id":"","type":"canvas_color"},{"album_image":"","blur":0.0,"color":"","id":"F2619A23-08B4-4442-8AF6-4783286A1920","image":"","image_id":"","image_name":"","source_platform":0,"team_id":"","type":"canvas_color"},{"album_image":"","blur":0.0,"color":"","id":"E8589F27-D515-4a62-82A8-8C80C239AF28","image":"","image_id":"","image_name":"","source_platform":0,"team_id":"","type":"canvas_color"},{"album_image":"","blur":0.0,"color":"","id":"0608FBB4-7E41-4e2f-925A-64F3F1CFE91F","image":"","image_id":"","image_name":"","source_platform":0,"team_id":"","type":"canvas_color"},{"album_image":"","blur":0.0,"color":"","id":"83886860-0121-47b8-AC60-973CEF945166","image":"","image_id":"","image_name":"","source_platform":0,"team_id":"","type":"canvas_color"},{"album_image":"","blur":0.0,"color":"","id":"20BA10E5-9164-47bc-9170-DAAAA1B09B8C","image":"","image_id":"","image_name":"","source_platform":0,"team_id":"","type":"canvas_color"},{"album_image":"","blur":0.0,"color":"","id":"F8757797-3A83-4d93-9BFF-8682CA46FA48","image":"","image_id":"","image_name":"","source_platform":0,"team_id":"","type":"canvas_color"},{"album_image":"","blur":0.0,"color":"","id":"A47B025F-2EDA-4e9e-8085-646C281469DD","image":"","image_id":"","image_name":"","source_platform":0,"team_id":"","type":"canvas_color"},{"album_image":"","blur":0.0,"color":"","id":"AE49038E-8B9D-44cc-B382-0585132E48EA","image":"","image_id":"","image_name":"","source_platform":0,"team_id":"","type":"canvas_color"},{"album_image":"","blur":0.0,"color":"","id":"851EE3FE-3E34-4710-BC7C-0769A0E53287","image":"","image_id":"","image_name":"","source_platform":0,"team_id":"","type":"canvas_color"},{"album_image":"","blur":0.0,"color":"","id":"E07C34B6-F19A-4731-BD6A-83599C67A6F0","image":"","image_id":"","image_name":"","source_platform":0,"team_id":"","type":"canvas_color"},{"album_image":"","blur":0.0,"color":"","id":"A5846569-B0AA-4286-BD51-D8FCF340CD33","image":"","image_id":"","image_name":"","source_platform":0,"team_id":"","type":"canvas_color"},{"album_image":"","blur":0.0,"color":"","id":"4FCB2238-50CF-486e-A6B9-92D0FFF21132","image":"","image_id":"","image_name":"","source_platform":0,"team_id":"","type":"canvas_color"},{"album_image":"","blur":0.0,"color":"","id":"A5ECA7D3-6326-4a87-9311-7AE196DECB8B","image":"","image_id":"","image_name":"","source_platform":0,"team_id":"","type":"canvas_color"},{"album_image":"","blur":0.0,"color":"","id":"3409B313-5AE6-4974-8D7D-FD3EFCA8C525","image":"","image_id":"","image_name":"","source_platform":0,"team_id":"","type":"canvas_color"},{"album_image":"","blur":0.0,"color":"","id":"49B1551A-F827-464e-A52E-98908BF78EBB","image":"","image_id":"","image_name":"","source_platform":0,"team_id":"","type":"canvas_color"},{"album_image":"","blur":0.0,"color":"","id":"254F1F9C-8BBF-4430-BE2F-90ABF98D3BA9","image":"","image_id":"","image_name":"","source_platform":0,"team_id":"","type":"canvas_color"},{"album_image":"","blur":0.0,"color":"","id":"8D5BB3F1-DAAE-4bc4-8069-27DB6AA281BA","image":"","image_id":"","image_name":"","source_platform":0,"team_id":"","type":"canvas_color"},{"album_image":"","blur":0.0,"color":"","id":"6A48303E-77BB-4947-929B-496447B5FE45","image":"","image_id":"","image_name":"","source_platform":0,"team_id":"","type":"canvas_color"},{"album_image":"","blur":0.0,"color":"","id":"0D77CF8F-4A86-4a12-ADDA-87D808A681BB","image":"","image_id":"","image_name":"","source_platform":0,"team_id":"","type":"canvas_color"},{"album_image":"","blur":0.0,"color":"","id":"607F4923-13D3-4372-9E62-261CEDB3D959","image":"","image_id":"","image_name":"","source_platform":0,"team_id":"","type":"canvas_color"},{"album_image":"","blur":0.0,"color":"","id":"B27252D9-FA40-4df5-AB81-B8E2669721FA","image":"","image_id":"","image_name":"","source_platform":0,"team_id":"","type":"canvas_color"},{"album_image":"","blur":0.0,"color":"","id":"042474FF-49DB-4829-82A0-FA1974A6E8B8","image":"","image_id":"","image_name":"","source_platform":0,"team_id":"","type":"canvas_color"},{"album_image":"","blur":0.0,"color":"","id":"CCF8E6FE-F623-44b5-AA6F-F1F6C805120F","image":"","image_id":"","image_name":"","source_platform":0,"team_id":"","type":"canvas_color"},{"album_image":"","blur":0.0,"color":"","id":"094E9E0F-AEBF-442f-9D67-1F17D2CC3B88","image":"","image_id":"","image_name":"","source_platform":0,"team_id":"","type":"canvas_color"}],"chromas":[],"color_curves":[],"common_mask":[],"digital_humans":[],"drafts":[],"effects":[],"flowers":[],"green_screens":[],"handwrites":[],"hsl":[],"images":[],"log_color_wheels":[],"loudnesses":[],"manual_beautys":[],"manual_deformations":[],"material_animations":[{"animations":[],"id":"692918B6-699F-4d4c-ABDC-FB09CD848B72","multi_language_current":"none","type":"sticker_animation"},{"animations":[],"id":"B3489D99-24DD-4711-890C-0DF1B6DA7E38","multi_language_current":"none","type":"sticker_animation"},{"animations":[],"id":"B6F628B2-F2F6-433f-893E-E9B8170DEA84","multi_language_current":"none","type":"sticker_animation"},{"animations":[],"id":"7D54229B-C0ED-4fac-8CD4-284C5BFB7D75","multi_language_current":"none","type":"sticker_animation"},{"animations":[],"id":"AAEA1E33-BF35-4602-9B9F-C208D4CFE90D","multi_language_current":"none","type":"sticker_animation"},{"animations":[],"id":"49D6E14D-AD1E-4b7f-AFEA-09105C98369B","multi_language_current":"none","type":"sticker_animation"},{"animations":[],"id":"F4B0B970-F621-4e9d-B5DA-F88D744BA57A","multi_language_current":"none","type":"sticker_animation"},{"animations":[],"id":"31AE4D55-E0B2-4e03-94B6-A9B2DCDEB974","multi_language_current":"none","type":"sticker_animation"},{"animations":[],"id":"8E5C5761-89EC-4558-9C00-3753EAFE10DF","multi_language_current":"none","type":"sticker_animation"},{"animations":[],"id":"84F14AD4-DCB4-45ec-B5E6-7708CFC7AC0E","multi_language_current":"none","type":"sticker_animation"},{"animations":[],"id":"AED5318E-D045-406c-B27F-1898A680CCD2","multi_language_current":"none","type":"sticker_animation"},{"animations":[],"id":"662952EB-A472-4d4c-87DB-59175DADA730","multi_language_current":"none","type":"sticker_animation"},{"animations":[],"id":"64521777-74AD-44d2-B68A-D72F29B2B5D7","multi_language_current":"none","type":"sticker_animation"},{"animations":[],"id":"C9074EC2-1DDD-4040-BBEC-3C512932F89E","multi_language_current":"none","type":"sticker_animation"},{"animations":[],"id":"5012E6A6-D212-4d65-8A32-AF7BB63622DF","multi_language_current":"none","type":"sticker_animation"},{"animations":[],"id":"8223A00D-D796-43a9-B974-838590F9D13A","multi_language_current":"none","type":"sticker_animation"},{"animations":[],"id":"042E36A4-7C42-4d37-8207-B06C463A4870","multi_language_current":"none","type":"sticker_animation"},{"animations":[],"id":"DA892F73-1127-4c7a-9AD0-409668080CE2","multi_language_current":"none","type":"sticker_animation"},{"animations":[],"id":"9387F03B-4232-4da6-9E0A-5BD4F8237391","multi_language_current":"none","type":"sticker_animation"},{"animations":[],"id":"541E8C37-38C0-47f2-A9D2-3316B101FBA4","multi_language_current":"none","type":"sticker_animation"},{"animations":[],"id":"EBC6DB7B-6250-416e-857B-81DE52084FF8","multi_language_current":"none","type":"sticker_animation"}],"material_colors":[],"multi_language_refs":[],"placeholder_infos":[{"error_path":"","error_text":"","id":"AC029904-1309-412c-926B-000184298385","meta_type":"none","res_path":"","res_text":"","type":"placeholder_info"},{"error_path":"","error_text":"","id":"8499517F-6EBB-4af6-BDC1-A830936F8075","meta_type":"none","res_path":"","res_text":"","type":"placeholder_info"},{"error_path":"","error_text":"","id":"68550E12-DE40-4784-B252-C72809559FBE","meta_type":"none","res_path":"","res_text":"","type":"placeholder_info"},{"error_path":"","error_text":"","id":"2DF7F114-6F5F-4059-AEAE-49457C863960","meta_type":"none","res_path":"","res_text":"","type":"placeholder_info"},{"error_path":"","error_text":"","id":"4C3974E3-58BC-43b7-AC5E-D4C98841CB19","meta_type":"none","res_path":"","res_text":"","type":"placeholder_info"},{"error_path":"","error_text":"","id":"CC7B181A-2A90-47be-87DC-D3D79F73D6A2","meta_type":"none","res_path":"","res_text":"","type":"placeholder_info"},{"error_path":"","error_text":"","id":"8ED1600D-2D5E-4827-B287-0855907B79A3","meta_type":"none","res_path":"","res_text":"","type":"placeholder_info"},{"error_path":"","error_text":"","id":"E96DB97A-4FAF-4f7e-8791-3659A4ADB7A5","meta_type":"none","res_path":"","res_text":"","type":"placeholder_info"},{"error_path":"","error_text":"","id":"06F596FB-F2E9-422c-887F-C20B8E12FF63","meta_type":"none","res_path":"","res_text":"","type":"placeholder_info"},{"error_path":"","error_text":"","id":"5B78B676-EC58-4569-BFAA-B96301374810","meta_type":"none","res_path":"","res_text":"","type":"placeholder_info"},{"error_path":"","error_text":"","id":"D90F72C7-01E5-4fc7-B8AB-BFC30EFFF13F","meta_type":"none","res_path":"","res_text":"","type":"placeholder_info"},{"error_path":"","error_text":"","id":"9A7FAC5E-F602-4728-9C32-BBEB370BED2F","meta_type":"none","res_path":"","res_text":"","type":"placeholder_info"},{"error_path":"","error_text":"","id":"EF4D4EBC-CCBD-4211-965C-D2A760277AAF","meta_type":"none","res_path":"","res_text":"","type":"placeholder_info"},{"error_path":"","error_text":"","id":"004BE01A-54C9-4c35-B946-1EB619F77051","meta_type":"none","res_path":"","res_text":"","type":"placeholder_info"},{"error_path":"","error_text":"","id":"7204192E-D149-4be7-84E4-0DD17A2325F7","meta_type":"none","res_path":"","res_text":"","type":"placeholder_info"},{"error_path":"","error_text":"","id":"758A90C0-63DB-4e78-939D-10EAB60191EF","meta_type":"none","res_path":"","res_text":"","type":"placeholder_info"},{"error_path":"","error_text":"","id":"90C93226-75A0-47f2-A21D-EDD878BB93B7","meta_type":"none","res_path":"","res_text":"","type":"placeholder_info"},{"error_path":"","error_text":"","id":"E391D58A-AAA9-4121-9C76-0BAC34155DD0","meta_type":"none","res_path":"","res_text":"","type":"placeholder_info"},{"error_path":"","error_text":"","id":"F4FE8E37-7770-439a-8EA7-36291ACEE7C3","meta_type":"none","res_path":"","res_text":"","type":"placeholder_info"},{"error_path":"","error_text":"","id":"59FA7BB0-25C9-4f91-AC4A-AD4F7A03E4DD","meta_type":"none","res_path":"","res_text":"","type":"placeholder_info"},{"error_path":"","error_text":"","id":"A5853C0A-3A68-4767-BE19-CD9EAF894626","meta_type":"none","res_path":"","res_text":"","type":"placeholder_info"},{"error_path":"","error_text":"","id":"F0DB4A18-2709-4d40-B264-2AAEE21CC54F","meta_type":"none","res_path":"","res_text":"","type":"placeholder_info"},{"error_path":"","error_text":"","id":"C34E82B3-5DC2-48db-9DAC-AF136FD53E66","meta_type":"none","res_path":"","res_text":"","type":"placeholder_info"},{"error_path":"","error_text":"","id":"A662B79D-6C19-443c-8A97-A53D4F71754A","meta_type":"none","res_path":"","res_text":"","type":"placeholder_info"},{"error_path":"","error_text":"","id":"73FE42CB-4FD2-4b50-A96B-5E98E246FF0E","meta_type":"none","res_path":"","res_text":"","type":"placeholder_info"},{"error_path":"","error_text":"","id":"7030D4FB-179A-4a86-8721-3C715A6CDDB1","meta_type":"none","res_path":"","res_text":"","type":"placeholder_info"},{"error_path":"","error_text":"","id":"D74012A3-A32B-41c0-BBB8-B31758C7B7E3","meta_type":"none","res_path":"","res_text":"","type":"placeholder_info"}],"placeholders":[],"plugin_effects":[],"primary_color_wheels":[],"realtime_denoises":[],"shapes":[],"smart_crops":[],"smart_relights":[],"sound_channel_mappings":[{"audio_channel_mapping":0,"id":"2EDB58B7-0D86-4fcd-B693-78A71E169898","is_config_open":false,"type":"none"},{"audio_channel_mapping":0,"id":"DCB47958-21A6-4ba6-9F84-26177531857D","is_config_open":false,"type":"none"},{"audio_channel_mapping":0,"id":"BAC37606-3872-4104-A706-D092A107C1C8","is_config_open":false,"type":"none"},{"audio_channel_mapping":0,"id":"92694E41-81A5-4cd3-8DFA-3F7A3E8365EB","is_config_open":false,"type":"none"},{"audio_channel_mapping":0,"id":"F114035D-2431-4cee-B20E-25BE53A7932E","is_config_open":false,"type":"none"},{"audio_channel_mapping":0,"id":"3EA3CBD0-A44E-40d0-B343-9E804E015791","is_config_open":false,"type":"none"},{"audio_channel_mapping":0,"id":"D04170EE-1A59-4948-B4CE-B4D3ACB6401F","is_config_open":false,"type":"none"},{"audio_channel_mapping":0,"id":"479C4BFB-310B-421b-83F2-0E54F818F42A","is_config_open":false,"type":"none"},{"audio_channel_mapping":0,"id":"E6E05EFE-4B39-4a16-AA01-E01BED222688","is_config_open":false,"type":"none"},{"audio_channel_mapping":0,"id":"D0AB2F8A-C17C-497b-AA02-E5EEB65F86B9","is_config_open":false,"type":"none"},{"audio_channel_mapping":0,"id":"4274DF99-1F67-41a4-925A-2E64ACC4C394","is_config_open":false,"type":"none"},{"audio_channel_mapping":0,"id":"BE8FF5D3-81C2-4e3a-9865-2197C71B6850","is_config_open":false,"type":"none"},{"audio_channel_mapping":0,"id":"02033B28-A9C9-4b5e-88E2-D2E7E78000D9","is_config_open":false,"type":"none"},{"audio_channel_mapping":0,"id":"34065D7A-63BC-42c3-BF8C-975B656D8B76","is_config_open":false,"type":"none"},{"audio_channel_mapping":0,"id":"1CDC0BCC-9310-4a11-A850-4A3F861B2A43","is_config_open":false,"type":"none"},{"audio_channel_mapping":0,"id":"E4F32C45-01C3-4780-B3B1-076CA9399578","is_config_open":false,"type":"none"},{"audio_channel_mapping":0,"id":"D13B09CA-9746-481f-A00A-75C9E132ED52","is_config_open":false,"type":"none"},{"audio_channel_mapping":0,"id":"3A15F2B5-B9E0-45ca-98C7-5911CCF20059","is_config_open":false,"type":"none"},{"audio_channel_mapping":0,"id":"1DD2BE26-66C1-4910-8CDA-130AA20EE6BC","is_config_open":false,"type":"none"},{"audio_channel_mapping":0,"id":"A9407BF4-C170-4bad-A9D3-11FC976BA790","is_config_open":false,"type":"none"},{"audio_channel_mapping":0,"id":"C3869B7C-2BFC-47fc-BAE3-105AACB2EA29","is_config_open":false,"type":"none"},{"audio_channel_mapping":0,"id":"F6F3CBE7-FE37-4073-B59B-88436B5A87BC","is_config_open":false,"type":"none"},{"audio_channel_mapping":0,"id":"ED2E5220-4E2F-4915-B1FB-4E622087EDF8","is_config_open":false,"type":"none"},{"audio_channel_mapping":0,"id":"2F4C33EF-F310-442e-8893-BB208065F884","is_config_open":false,"type":"none"},{"audio_channel_mapping":0,"id":"846A5032-09CA-4450-B277-E20430EF0268","is_config_open":false,"type":"none"},{"audio_channel_mapping":0,"id":"61CAFA95-5296-4439-908D-CF9C47C583D4","is_config_open":false,"type":"none"},{"audio_channel_mapping":0,"id":"464A835E-F46A-4dcc-873E-9FADC5BBD882","is_config_open":false,"type":"none"}],"speeds":[{"curve_speed":null,"id":"0565C924-A5A2-4ee5-A89A-1A7BCD0A25DE","mode":0,"speed":1.0,"type":"speed"},{"curve_speed":null,"id":"2C98FAB4-FA89-448d-94CA-7E4AFE3EB4AD","mode":0,"speed":1.0,"type":"speed"},{"curve_speed":null,"id":"A9DD4BC9-F79F-4e9f-8AA4-AD7E1CF46F15","mode":0,"speed":1.0,"type":"speed"},{"curve_speed":null,"id":"CCCA05CA-BDE2-416a-9C8B-E58A7F555C57","mode":0,"speed":1.0,"type":"speed"},{"curve_speed":null,"id":"306E4B32-64F7-40cd-887E-166AE539A0FF","mode":0,"speed":1.0,"type":"speed"},{"curve_speed":null,"id":"B46A94D6-F0E2-4525-B8C8-ED6C3C7ECAC7","mode":0,"speed":1.0,"type":"speed"},{"curve_speed":null,"id":"74818EA7-6BE3-4b35-B313-1AAD9E946FDE","mode":0,"speed":1.0,"type":"speed"},{"curve_speed":null,"id":"6F63BFCC-E297-4f88-BAAB-8C01E174EFDF","mode":0,"speed":1.0,"type":"speed"},{"curve_speed":null,"id":"AFC81A8F-1CF9-43e2-AEDA-0D9CA6925B8D","mode":0,"speed":1.0,"type":"speed"},{"curve_speed":null,"id":"64F3F6CD-8189-462e-920A-21637BEEA82C","mode":0,"speed":1.0,"type":"speed"},{"curve_speed":null,"id":"DF194E9B-FB4A-4fbd-A23F-C1212117D27B","mode":0,"speed":1.0,"type":"speed"},{"curve_speed":null,"id":"A997DA61-A049-4183-B9EA-2B7272AFF17E","mode":0,"speed":1.09,"type":"speed"},{"curve_speed":null,"id":"F9709FF4-236B-42af-8DC6-7C47A3B9F6B2","mode":0,"speed":1.09,"type":"speed"},{"curve_speed":null,"id":"A7C12D7F-0F2E-4096-9B49-3CECCAB1683F","mode":0,"speed":1.0,"type":"speed"},{"curve_speed":null,"id":"AD1704D1-D023-4cd7-B791-8319DC0DAEED","mode":0,"speed":1.0,"type":"speed"},{"curve_speed":null,"id":"2A45C0EA-DDC2-47e4-9B9D-ECCD0DD12A52","mode":0,"speed":1.0,"type":"speed"},{"curve_speed":null,"id":"83C8A6D5-27D8-415b-AB9A-7CF9C2FADF17","mode":0,"speed":2.0,"type":"speed"},{"curve_speed":null,"id":"3AA1E08D-8C5E-42b7-B5E6-BC4E9A1B2ADE","mode":0,"speed":2.0,"type":"speed"},{"curve_speed":null,"id":"1EE54D44-19AB-4e00-8FA6-46F1B26E1C33","mode":0,"speed":2.0,"type":"speed"},{"curve_speed":null,"id":"6341B9AF-8C3C-43a1-AC00-CE117F79D311","mode":0,"speed":2.0,"type":"speed"},{"curve_speed":null,"id":"5B822A46-5CF6-46fd-A07A-EF0A2105E860","mode":0,"speed":3.0,"type":"speed"},{"curve_speed":null,"id":"FF3AA503-CE98-4b7f-BEC0-86828CEA6A88","mode":0,"speed":3.0,"type":"speed"},{"curve_speed":null,"id":"F947927D-DA26-4265-8F99-75C15865CB62","mode":0,"speed":3.0,"type":"speed"},{"curve_speed":null,"id":"505AA420-7AB8-4342-B067-B53F12AD6253","mode":0,"speed":2.0,"type":"speed"},{"curve_speed":null,"id":"32B6F5CA-32B8-4930-896C-A918224D8D2C","mode":0,"speed":1.0,"type":"speed"},{"curve_speed":null,"id":"244F7DA6-BA98-406b-8502-8CEEF6118491","mode":0,"speed":0.53,"type":"speed"},{"curve_speed":null,"id":"13610DEF-25DF-47b6-B46E-5D5E173BDF21","mode":0,"speed":1.0,"type":"speed"}],"stickers":[],"tail_leaders":[],"text_templates":[],"texts":[],"time_marks":[],"transitions":[{"category_id":"27186","category_name":"Trending","duration":466666,"effect_id":"9291082","id":"CAD6AB47-0841-4976-A7DD-561B29D4F39B","is_overlap":true,"name":"Flash","path":"C:/Users/Computer/AppData/Local/CapCut/User Data/Cache/effect/9291082/009f3e9678994c70c3b45e8a5ea4b999","platform":"all","request_id":"02173930047272400000000000000000000ffff0a00af1555ee94","resource_id":"6987208055511323137","source_platform":0,"third_resource_id":"0","type":"transition"},{"category_id":"27186","category_name":"Trending","duration":466666,"effect_id":"9291082","id":"C17A36A8-4F6F-4060-B83D-11D3CAEBEE0E","is_overlap":true,"name":"Flash","path":"C:/Users/Computer/AppData/Local/CapCut/User Data/Cache/effect/9291082/009f3e9678994c70c3b45e8a5ea4b999","platform":"all","request_id":"02173930047272400000000000000000000ffff0a00af1555ee94","resource_id":"6987208055511323137","source_platform":0,"third_resource_id":"0","type":"transition"},{"category_id":"27186","category_name":"Trending","duration":466666,"effect_id":"9291082","id":"F85DC1A9-32C1-40d7-9BDA-A1D2703E8900","is_overlap":true,"name":"Flash","path":"C:/Users/Computer/AppData/Local/CapCut/User Data/Cache/effect/9291082/009f3e9678994c70c3b45e8a5ea4b999","platform":"all","request_id":"02173930047272400000000000000000000ffff0a00af1555ee94","resource_id":"6987208055511323137","source_platform":0,"third_resource_id":"0","type":"transition"},{"category_id":"27186","category_name":"Trending","duration":466666,"effect_id":"9291082","id":"9E0D2DD9-1F5C-4553-B71E-33B4D44970C7","is_overlap":true,"name":"Flash","path":"C:/Users/Computer/AppData/Local/CapCut/User Data/Cache/effect/9291082/009f3e9678994c70c3b45e8a5ea4b999","platform":"all","request_id":"02173930047272400000000000000000000ffff0a00af1555ee94","resource_id":"6987208055511323137","source_platform":0,"third_resource_id":"0","type":"transition"},{"category_id":"27186","category_name":"Trending","duration":1466666,"effect_id":"9290995","id":"ED5ABF65-5D83-4ff3-B021-45C481833606","is_overlap":false,"name":"Black Fade","path":"C:/Users/Computer/AppData/Local/CapCut/User Data/Cache/effect/9290995/3bca53e9f3dfa2c184fbee96438ea097","platform":"all","request_id":"02173930047272400000000000000000000ffff0a00af1555ee94","resource_id":"6724239388189921806","source_platform":0,"third_resource_id":"0","type":"transition"}],"video_effects":[],"video_trackings":[],"videos":[{"aigc_history_id":"","aigc_item_id":"","aigc_type":"none","audio_fade":null,"beauty_body_preset_id":"","beauty_face_auto_preset":{"name":"","preset_id":"","rate_map":""},"beauty_face_auto_preset_infos":[],"beauty_face_preset_infos":[],"cartoon_path":"","category_id":"","category_name":"","check_flag":62978047,"crop":{"lower_left_x":0.0,"lower_left_y":1.0,"lower_right_x":1.0,"lower_right_y":1.0,"upper_left_x":0.0,"upper_left_y":0.0,"upper_right_x":1.0,"upper_right_y":0.0},"crop_ratio":"free","crop_scale":1.0,"duration":10000000,"extra_type_option":0,"formula_id":"","freeze":null,"has_audio":false,"has_sound_separated":false,"height":480,"id":"915966C6-9B32-4f7b-AC05-5B48FC70BA17","intensifies_audio_path":"","intensifies_path":"","is_ai_generate_content":false,"is_copyright":false,"is_text_edit_overdub":false,"is_unified_beauty_mode":false,"live_photo_cover_path":"","live_photo_timestamp":-1,"local_id":"","local_material_from":"","local_material_id":"","material_id":"","material_name":"1.0_20250211_1848_Mysterious Cave Shadows_storyboard_01jkvpk7zvedsb6wnd8xtntjn0.mp4","material_url":"","matting":{"custom_matting_id":"","enable_matting_stroke":false,"expansion":0,"feather":0,"flag":0,"has_use_quick_brush":false,"has_use_quick_eraser":false,"interactiveTime":[],"path":"","reverse":false,"strokes":[]},"media_path":"","multi_camera_info":null,"object_locked":null,"origin_material_id":"","path":"C:/Users/Computer/Downloads/1.0_20250211_1848_Mysterious Cave Shadows_storyboard_01jkvpk7zvedsb6wnd8xtntjn0.mp4","picture_from":"none","picture_set_category_id":"","picture_set_category_name":"","request_id":"","reverse_intensifies_path":"","reverse_path":"","smart_match_info":null,"smart_motion":null,"source":0,"source_platform":0,"stable":{"matrix_path":"","stable_level":0,"time_range":{"duration":0,"start":0}},"team_id":"","type":"video","video_algorithm":{"ai_background_configs":[],"ai_expression_driven":null,"ai_motion_driven":null,"aigc_generate":null,"algorithms":[],"complement_frame_config":null,"deflicker":null,"gameplay_configs":[],"motion_blur_config":null,"mouth_shape_driver":null,"noise_reduction":null,"path":"","quality_enhance":null,"smart_complement_frame":null,"super_resolution":null,"time_range":null},"width":854},{"aigc_history_id":"","aigc_item_id":"","aigc_type":"none","audio_fade":null,"beauty_body_preset_id":"","beauty_face_auto_preset":{"name":"","preset_id":"","rate_map":""},"beauty_face_auto_preset_infos":[],"beauty_face_preset_infos":[],"cartoon_path":"","category_id":"","category_name":"","check_flag":62978047,"crop":{"lower_left_x":0.0,"lower_left_y":1.0,"lower_right_x":1.0,"lower_right_y":1.0,"upper_left_x":0.0,"upper_left_y":0.0,"upper_right_x":1.0,"upper_right_y":0.0},"crop_ratio":"free","crop_scale":1.0,"duration":10000000,"extra_type_option":0,"formula_id":"","freeze":null,"has_audio":false,"has_sound_separated":false,"height":480,"id":"2E5CC151-EB68-46db-80B7-E8A744259049","intensifies_audio_path":"","intensifies_path":"","is_ai_generate_content":false,"is_copyright":false,"is_text_edit_overdub":false,"is_unified_beauty_mode":false,"live_photo_cover_path":"","live_photo_timestamp":-1,"local_id":"","local_material_from":"","local_material_id":"","material_id":"","material_name":"1.1_20250211_1910_Holographic Figure Emergence_storyboard_01jkvqwb6te60r1g2fddbfk2gd.mp4","material_url":"","matting":{"custom_matting_id":"","enable_matting_stroke":false,"expansion":0,"feather":0,"flag":0,"has_use_quick_brush":false,"has_use_quick_eraser":false,"interactiveTime":[],"path":"","reverse":false,"strokes":[]},"media_path":"","multi_camera_info":null,"object_locked":null,"origin_material_id":"","path":"C:/Users/Computer/Downloads/1.1_20250211_1910_Holographic Figure Emergence_storyboard_01jkvqwb6te60r1g2fddbfk2gd.mp4","picture_from":"none","picture_set_category_id":"","picture_set_category_name":"","request_id":"","reverse_intensifies_path":"","reverse_path":"","smart_match_info":null,"smart_motion":null,"source":0,"source_platform":0,"stable":{"matrix_path":"","stable_level":0,"time_range":{"duration":0,"start":0}},"team_id":"","type":"video","video_algorithm":{"ai_background_configs":[],"ai_expression_driven":null,"ai_motion_driven":null,"aigc_generate":null,"algorithms":[],"complement_frame_config":null,"deflicker":null,"gameplay_configs":[],"motion_blur_config":null,"mouth_shape_driver":null,"noise_reduction":null,"path":"","quality_enhance":null,"smart_complement_frame":null,"super_resolution":null,"time_range":{"duration":10000000,"start":0}},"width":854},{"aigc_history_id":"","aigc_item_id":"","aigc_type":"none","audio_fade":null,"beauty_body_preset_id":"","beauty_face_auto_preset":{"name":"","preset_id":"","rate_map":""},"beauty_face_auto_preset_infos":[],"beauty_face_preset_infos":[],"cartoon_path":"","category_id":"","category_name":"local","check_flag":62978047,"crop":{"lower_left_x":0.0,"lower_left_y":1.0,"lower_right_x":1.0,"lower_right_y":1.0,"upper_left_x":0.0,"upper_left_y":0.0,"upper_right_x":1.0,"upper_right_y":0.0},"crop_ratio":"free","crop_scale":1.0,"duration":10000000,"extra_type_option":0,"formula_id":"","freeze":null,"has_audio":false,"has_sound_separated":false,"height":480,"id":"D9107C33-259D-4ea2-BD02-ED797F091782","intensifies_audio_path":"","intensifies_path":"","is_ai_generate_content":false,"is_copyright":false,"is_text_edit_overdub":false,"is_unified_beauty_mode":false,"live_photo_cover_path":"","live_photo_timestamp":-1,"local_id":"","local_material_from":"","local_material_id":"5d75a7d6-37bd-413c-8b11-96a52178143c","material_id":"","material_name":"2.0_20250211_1951_Ghostly Symphony of Regret_storyboard_01jkvt6z2aepn89sxev4sswknf.mp4","material_url":"","matting":{"custom_matting_id":"","enable_matting_stroke":false,"expansion":0,"feather":0,"flag":0,"has_use_quick_brush":false,"has_use_quick_eraser":false,"interactiveTime":[],"path":"","reverse":false,"strokes":[]},"media_path":"","multi_camera_info":null,"object_locked":null,"origin_material_id":"","path":"C:/Users/Computer/Downloads/2.0_20250211_1951_Ghostly Symphony of Regret_storyboard_01jkvt6z2aepn89sxev4sswknf.mp4","picture_from":"none","picture_set_category_id":"","picture_set_category_name":"","request_id":"","reverse_intensifies_path":"","reverse_path":"","smart_match_info":null,"smart_motion":null,"source":0,"source_platform":0,"stable":{"matrix_path":"","stable_level":0,"time_range":{"duration":0,"start":0}},"team_id":"","type":"video","video_algorithm":{"ai_background_configs":[],"ai_expression_driven":null,"ai_motion_driven":null,"aigc_generate":null,"algorithms":[],"complement_frame_config":null,"deflicker":null,"gameplay_configs":[],"motion_blur_config":null,"mouth_shape_driver":null,"noise_reduction":null,"path":"","quality_enhance":null,"smart_complement_frame":null,"super_resolution":null,"time_range":{"duration":8366666,"start":0}},"width":854},{"aigc_history_id":"","aigc_item_id":"","aigc_type":"none","audio_fade":null,"beauty_body_preset_id":"","beauty_face_auto_preset":{"name":"","preset_id":"","rate_map":""},"beauty_face_auto_preset_infos":[],"beauty_face_preset_infos":[],"cartoon_path":"","category_id":"","category_name":"local","check_flag":62978047,"crop":{"lower_left_x":0.0,"lower_left_y":1.0,"lower_right_x":1.0,"lower_right_y":1.0,"upper_left_x":0.0,"upper_left_y":0.0,"upper_right_x":1.0,"upper_right_y":0.0},"crop_ratio":"free","crop_scale":1.0,"duration":10000000,"extra_type_option":0,"formula_id":"","freeze":null,"has_audio":false,"has_sound_separated":false,"height":480,"id":"CCB84237-09EE-4886-B780-82F0D1FE0232","intensifies_audio_path":"","intensifies_path":"","is_ai_generate_content":false,"is_copyright":false,"is_text_edit_overdub":false,"is_unified_beauty_mode":false,"live_photo_cover_path":"","live_photo_timestamp":-1,"local_id":"","local_material_from":"","local_material_id":"5d75a7d6-37bd-413c-8b11-96a52178143c","material_id":"","material_name":"2.0_20250211_1951_Ghostly Symphony of Regret_storyboard_01jkvt6z2aepn89sxev4sswknf.mp4","material_url":"","matting":{"custom_matting_id":"","enable_matting_stroke":false,"expansion":0,"feather":0,"flag":0,"has_use_quick_brush":false,"has_use_quick_eraser":false,"interactiveTime":[],"path":"","reverse":false,"strokes":[]},"media_path":"","multi_camera_info":null,"object_locked":null,"origin_material_id":"","path":"C:/Users/Computer/Downloads/2.0_20250211_1951_Ghostly Symphony of Regret_storyboard_01jkvt6z2aepn89sxev4sswknf.mp4","picture_from":"none","picture_set_category_id":"","picture_set_category_name":"","request_id":"","reverse_intensifies_path":"","reverse_path":"","smart_match_info":null,"smart_motion":null,"source":0,"source_platform":0,"stable":{"matrix_path":"","stable_level":0,"time_range":{"duration":0,"start":0}},"team_id":"","type":"video","video_algorithm":{"ai_background_configs":[],"ai_expression_driven":null,"ai_motion_driven":null,"aigc_generate":null,"algorithms":[],"complement_frame_config":null,"deflicker":null,"gameplay_configs":[],"motion_blur_config":null,"mouth_shape_driver":null,"noise_reduction":null,"path":"","quality_enhance":null,"smart_complement_frame":null,"super_resolution":null,"time_range":{"duration":3633334,"start":6366666}},"width":854},{"aigc_history_id":"","aigc_item_id":"","aigc_type":"none","audio_fade":null,"beauty_body_preset_id":"","beauty_face_auto_preset":{"name":"","preset_id":"","rate_map":""},"beauty_face_auto_preset_infos":[],"beauty_face_preset_infos":[],"cartoon_path":"","category_id":"","category_name":"local","check_flag":62978047,"crop":{"lower_left_x":0.0,"lower_left_y":1.0,"lower_right_x":1.0,"lower_right_y":1.0,"upper_left_x":0.0,"upper_left_y":0.0,"upper_right_x":1.0,"upper_right_y":0.0},"crop_ratio":"free","crop_scale":1.0,"duration":10000000,"extra_type_option":0,"formula_id":"","freeze":null,"has_audio":false,"has_sound_separated":false,"height":480,"id":"EEC23333-D4B2-484f-B60A-A30F5F7334B4","intensifies_audio_path":"","intensifies_path":"","is_ai_generate_content":false,"is_copyright":false,"is_text_edit_overdub":false,"is_unified_beauty_mode":false,"live_photo_cover_path":"","live_photo_timestamp":-1,"local_id":"","local_material_from":"","local_material_id":"b468eee1-5ff8-4002-8fc8-eb808372bab5","material_id":"","material_name":"2.15_20250211_1952_Ethereal Night Musicians_storyboard_01jkvt992vfxsvhpwdjy4gkq48.mp4","material_url":"","matting":{"custom_matting_id":"","enable_matting_stroke":false,"expansion":0,"feather":0,"flag":0,"has_use_quick_brush":false,"has_use_quick_eraser":false,"interactiveTime":[],"path":"","reverse":false,"strokes":[]},"media_path":"","multi_camera_info":null,"object_locked":null,"origin_material_id":"","path":"C:/Users/Computer/Downloads/2.15_20250211_1952_Ethereal Night Musicians_storyboard_01jkvt992vfxsvhpwdjy4gkq48.mp4","picture_from":"none","picture_set_category_id":"","picture_set_category_name":"","request_id":"","reverse_intensifies_path":"","reverse_path":"","smart_match_info":null,"smart_motion":null,"source":0,"source_platform":0,"stable":{"matrix_path":"","stable_level":0,"time_range":{"duration":0,"start":0}},"team_id":"","type":"video","video_algorithm":{"ai_background_configs":[],"ai_expression_driven":null,"ai_motion_driven":null,"aigc_generate":null,"algorithms":[],"complement_frame_config":null,"deflicker":null,"gameplay_configs":[],"motion_blur_config":null,"mouth_shape_driver":null,"noise_reduction":null,"path":"","quality_enhance":null,"smart_complement_frame":null,"super_resolution":null,"time_range":{"duration":10000000,"start":0}},"width":854},{"aigc_history_id":"","aigc_item_id":"","aigc_type":"none","audio_fade":null,"beauty_body_preset_id":"","beauty_face_auto_preset":{"name":"","preset_id":"","rate_map":""},"beauty_face_auto_preset_infos":[],"beauty_face_preset_infos":[],"cartoon_path":"","category_id":"","category_name":"local","check_flag":62978047,"crop":{"lower_left_x":0.0,"lower_left_y":1.0,"lower_right_x":1.0,"lower_right_y":1.0,"upper_left_x":0.0,"upper_left_y":0.0,"upper_right_x":1.0,"upper_right_y":0.0},"crop_ratio":"free","crop_scale":1.0,"duration":10000000,"extra_type_option":0,"formula_id":"","freeze":null,"has_audio":false,"has_sound_separated":false,"height":480,"id":"CBEA0B7E-B862-43c1-BF35-4B8E3877A793","intensifies_audio_path":"","intensifies_path":"","is_ai_generate_content":false,"is_copyright":false,"is_text_edit_overdub":false,"is_unified_beauty_mode":false,"live_photo_cover_path":"","live_photo_timestamp":-1,"local_id":"","local_material_from":"","local_material_id":"5b7e9da9-961c-4b92-82c9-da5d01ca2008","material_id":"","material_name":"2.1_20250211_1952_Ethereal Night Musicians_storyboard_01jkvt992vfxsvhpwdjy4gkq48.mp4","material_url":"","matting":{"custom_matting_id":"","enable_matting_stroke":false,"expansion":0,"feather":0,"flag":0,"has_use_quick_brush":false,"has_use_quick_eraser":false,"interactiveTime":[],"path":"","reverse":false,"strokes":[]},"media_path":"","multi_camera_info":null,"object_locked":null,"origin_material_id":"","path":"C:/Users/Computer/Downloads/2.1_20250211_1952_Ethereal Night Musicians_storyboard_01jkvt992vfxsvhpwdjy4gkq48.mp4","picture_from":"none","picture_set_category_id":"","picture_set_category_name":"","request_id":"","reverse_intensifies_path":"","reverse_path":"","smart_match_info":null,"smart_motion":null,"source":0,"source_platform":0,"stable":{"matrix_path":"","stable_level":0,"time_range":{"duration":0,"start":0}},"team_id":"","type":"video","video_algorithm":{"ai_background_configs":[],"ai_expression_driven":null,"ai_motion_driven":null,"aigc_generate":null,"algorithms":[],"complement_frame_config":null,"deflicker":null,"gameplay_configs":[],"motion_blur_config":null,"mouth_shape_driver":null,"noise_reduction":null,"path":"","quality_enhance":null,"smart_complement_frame":null,"super_resolution":null,"time_range":{"duration":4633333,"start":0}},"width":854},{"aigc_history_id":"","aigc_item_id":"","aigc_type":"none","audio_fade":null,"beauty_body_preset_id":"","beauty_face_auto_preset":{"name":"","preset_id":"","rate_map":""},"beauty_face_auto_preset_infos":[],"beauty_face_preset_infos":[],"cartoon_path":"","category_id":"","category_name":"local","check_flag":62978047,"crop":{"lower_left_x":0.0,"lower_left_y":1.0,"lower_right_x":1.0,"lower_right_y":1.0,"upper_left_x":0.0,"upper_left_y":0.0,"upper_right_x":1.0,"upper_right_y":0.0},"crop_ratio":"free","crop_scale":1.0,"duration":10000000,"extra_type_option":0,"formula_id":"","freeze":null,"has_audio":false,"has_sound_separated":false,"height":480,"id":"74C82AED-7CE2-4882-9B0F-651716A3857E","intensifies_audio_path":"","intensifies_path":"","is_ai_generate_content":false,"is_copyright":false,"is_text_edit_overdub":false,"is_unified_beauty_mode":false,"live_photo_cover_path":"","live_photo_timestamp":-1,"local_id":"","local_material_from":"","local_material_id":"1a79b47f-f1b8-4973-b001-bdd9de46075b","material_id":"","material_name":"3.1_20250211_1947_Ethereal Night Dance_storyboard_01jkvt09hef50b53s1nw9qk1x6.mp4","material_url":"","matting":{"custom_matting_id":"","enable_matting_stroke":false,"expansion":0,"feather":0,"flag":0,"has_use_quick_brush":false,"has_use_quick_eraser":false,"interactiveTime":[],"path":"","reverse":false,"strokes":[]},"media_path":"","multi_camera_info":null,"object_locked":null,"origin_material_id":"","path":"C:/Users/Computer/Downloads/3.1_20250211_1947_Ethereal Night Dance_storyboard_01jkvt09hef50b53s1nw9qk1x6.mp4","picture_from":"none","picture_set_category_id":"","picture_set_category_name":"","request_id":"","reverse_intensifies_path":"","reverse_path":"","smart_match_info":null,"smart_motion":null,"source":0,"source_platform":0,"stable":{"matrix_path":"","stable_level":0,"time_range":{"duration":0,"start":0}},"team_id":"","type":"video","video_algorithm":{"ai_background_configs":[],"ai_expression_driven":null,"ai_motion_driven":null,"aigc_generate":null,"algorithms":[],"complement_frame_config":null,"deflicker":null,"gameplay_configs":[],"motion_blur_config":null,"mouth_shape_driver":null,"noise_reduction":null,"path":"","quality_enhance":null,"smart_complement_frame":null,"super_resolution":null,"time_range":{"duration":8233333,"start":0}},"width":854},{"aigc_history_id":"","aigc_item_id":"","aigc_type":"none","audio_fade":null,"beauty_body_preset_id":"","beauty_face_auto_preset":{"name":"","preset_id":"","rate_map":""},"beauty_face_auto_preset_infos":[],"beauty_face_preset_infos":[],"cartoon_path":"","category_id":"","category_name":"local","check_flag":62978047,"crop":{"lower_left_x":0.0,"lower_left_y":1.0,"lower_right_x":1.0,"lower_right_y":1.0,"upper_left_x":0.0,"upper_left_y":0.0,"upper_right_x":1.0,"upper_right_y":0.0},"crop_ratio":"free","crop_scale":1.0,"duration":10000000,"extra_type_option":0,"formula_id":"","freeze":null,"has_audio":false,"has_sound_separated":false,"height":480,"id":"513D9D92-C35F-498c-A662-07D14076E648","intensifies_audio_path":"","intensifies_path":"","is_ai_generate_content":false,"is_copyright":false,"is_text_edit_overdub":false,"is_unified_beauty_mode":false,"live_photo_cover_path":"","live_photo_timestamp":-1,"local_id":"","local_material_from":"","local_material_id":"c1b1aaf7-7220-4f2c-895d-f0bb160670b6","material_id":"","material_name":"3.11_20250211_2009_Graveyard Reflection_storyboard_01jkvv8xzwfsptggjzsprtxgh6.mp4","material_url":"","matting":{"custom_matting_id":"","enable_matting_stroke":false,"expansion":0,"feather":0,"flag":0,"has_use_quick_brush":false,"has_use_quick_eraser":false,"interactiveTime":[],"path":"","reverse":false,"strokes":[]},"media_path":"","multi_camera_info":null,"object_locked":null,"origin_material_id":"","path":"C:/Users/Computer/Downloads/3.11_20250211_2009_Graveyard Reflection_storyboard_01jkvv8xzwfsptggjzsprtxgh6.mp4","picture_from":"none","picture_set_category_id":"","picture_set_category_name":"","request_id":"","reverse_intensifies_path":"","reverse_path":"","smart_match_info":null,"smart_motion":null,"source":0,"source_platform":0,"stable":{"matrix_path":"","stable_level":0,"time_range":{"duration":0,"start":0}},"team_id":"","type":"video","video_algorithm":{"ai_background_configs":[],"ai_expression_driven":null,"ai_motion_driven":null,"aigc_generate":null,"algorithms":[],"complement_frame_config":null,"deflicker":null,"gameplay_configs":[],"motion_blur_config":null,"mouth_shape_driver":null,"noise_reduction":null,"path":"","quality_enhance":null,"smart_complement_frame":null,"super_resolution":null,"time_range":{"duration":6866667,"start":3133333}},"width":854},{"aigc_history_id":"","aigc_item_id":"","aigc_type":"none","audio_fade":null,"beauty_body_preset_id":"","beauty_face_auto_preset":{"name":"","preset_id":"","rate_map":""},"beauty_face_auto_preset_infos":[],"beauty_face_preset_infos":[],"cartoon_path":"","category_id":"","category_name":"local","check_flag":62978047,"crop":{"lower_left_x":0.0,"lower_left_y":1.0,"lower_right_x":1.0,"lower_right_y":1.0,"upper_left_x":0.0,"upper_left_y":0.0,"upper_right_x":1.0,"upper_right_y":0.0},"crop_ratio":"free","crop_scale":1.0,"duration":10000000,"extra_type_option":0,"formula_id":"","freeze":null,"has_audio":false,"has_sound_separated":false,"height":480,"id":"5DCF6717-33DB-4e6a-BEAC-E7D5BC7BE9CD","intensifies_audio_path":"","intensifies_path":"","is_ai_generate_content":false,"is_copyright":false,"is_text_edit_overdub":false,"is_unified_beauty_mode":false,"live_photo_cover_path":"","live_photo_timestamp":-1,"local_id":"","local_material_from":"","local_material_id":"a7377171-c30f-4c8a-8947-7e13e169f3a7","material_id":"","material_name":"2.2_20250211_1952_Ethereal Night Musicians_storyboard_01jkvt992jeg8t5hpkmhad7mce.mp4","material_url":"","matting":{"custom_matting_id":"","enable_matting_stroke":false,"expansion":0,"feather":0,"flag":0,"has_use_quick_brush":false,"has_use_quick_eraser":false,"interactiveTime":[],"path":"","reverse":false,"strokes":[]},"media_path":"","multi_camera_info":null,"object_locked":null,"origin_material_id":"","path":"C:/Users/Computer/Downloads/2.2_20250211_1952_Ethereal Night Musicians_storyboard_01jkvt992jeg8t5hpkmhad7mce.mp4","picture_from":"none","picture_set_category_id":"","picture_set_category_name":"","request_id":"","reverse_intensifies_path":"","reverse_path":"","smart_match_info":null,"smart_motion":null,"source":0,"source_platform":0,"stable":{"matrix_path":"","stable_level":0,"time_range":{"duration":0,"start":0}},"team_id":"","type":"video","video_algorithm":{"ai_background_configs":[],"ai_expression_driven":null,"ai_motion_driven":null,"aigc_generate":null,"algorithms":[],"complement_frame_config":null,"deflicker":null,"gameplay_configs":[],"motion_blur_config":null,"mouth_shape_driver":null,"noise_reduction":null,"path":"","quality_enhance":null,"smart_complement_frame":null,"super_resolution":null,"time_range":{"duration":7333334,"start":2666666}},"width":854},{"aigc_history_id":"","aigc_item_id":"","aigc_type":"none","audio_fade":null,"beauty_body_preset_id":"","beauty_face_auto_preset":{"name":"","preset_id":"","rate_map":""},"beauty_face_auto_preset_infos":[],"beauty_face_preset_infos":[],"cartoon_path":"","category_id":"","category_name":"local","check_flag":62978047,"crop":{"lower_left_x":0.0,"lower_left_y":1.0,"lower_right_x":1.0,"lower_right_y":1.0,"upper_left_x":0.0,"upper_left_y":0.0,"upper_right_x":1.0,"upper_right_y":0.0},"crop_ratio":"free","crop_scale":1.0,"duration":10000000,"extra_type_option":0,"formula_id":"","freeze":null,"has_audio":false,"has_sound_separated":false,"height":480,"id":"713EC91D-437B-4eda-B0DD-39DD0CAED067","intensifies_audio_path":"","intensifies_path":"","is_ai_generate_content":false,"is_copyright":false,"is_text_edit_overdub":false,"is_unified_beauty_mode":false,"live_photo_cover_path":"","live_photo_timestamp":-1,"local_id":"","local_material_from":"","local_material_id":"5d75a7d6-37bd-413c-8b11-96a52178143c","material_id":"","material_name":"2.0_20250211_1951_Ghostly Symphony of Regret_storyboard_01jkvt6z2aepn89sxev4sswknf.mp4","material_url":"","matting":{"custom_matting_id":"","enable_matting_stroke":false,"expansion":0,"feather":0,"flag":0,"has_use_quick_brush":false,"has_use_quick_eraser":false,"interactiveTime":[],"path":"","reverse":false,"strokes":[]},"media_path":"","multi_camera_info":null,"object_locked":null,"origin_material_id":"","path":"C:/Users/Computer/Downloads/2.0_20250211_1951_Ghostly Symphony of Regret_storyboard_01jkvt6z2aepn89sxev4sswknf.mp4","picture_from":"none","picture_set_category_id":"","picture_set_category_name":"","request_id":"","reverse_intensifies_path":"","reverse_path":"","smart_match_info":null,"smart_motion":null,"source":0,"source_platform":0,"stable":{"matrix_path":"","stable_level":0,"time_range":{"duration":0,"start":0}},"team_id":"","type":"video","video_algorithm":{"ai_background_configs":[],"ai_expression_driven":null,"ai_motion_driven":null,"aigc_generate":null,"algorithms":[],"complement_frame_config":null,"deflicker":null,"gameplay_configs":[],"motion_blur_config":null,"mouth_shape_driver":null,"noise_reduction":null,"path":"","quality_enhance":null,"smart_complement_frame":null,"super_resolution":null,"time_range":{"duration":6233333,"start":0}},"width":854},{"aigc_history_id":"","aigc_item_id":"","aigc_type":"none","audio_fade":null,"beauty_body_preset_id":"","beauty_face_auto_preset":{"name":"","preset_id":"","rate_map":""},"beauty_face_auto_preset_infos":[],"beauty_face_preset_infos":[],"cartoon_path":"","category_id":"","category_name":"local","check_flag":62978047,"crop":{"lower_left_x":0.0,"lower_left_y":1.0,"lower_right_x":1.0,"lower_right_y":1.0,"upper_left_x":0.0,"upper_left_y":0.0,"upper_right_x":1.0,"upper_right_y":0.0},"crop_ratio":"free","crop_scale":1.0,"duration":10000000,"extra_type_option":0,"formula_id":"","freeze":null,"has_audio":false,"has_sound_separated":false,"height":480,"id":"C9EC87A6-A2B0-40bc-9A62-3B7EC3333718","intensifies_audio_path":"","intensifies_path":"","is_ai_generate_content":false,"is_copyright":false,"is_text_edit_overdub":false,"is_unified_beauty_mode":false,"live_photo_cover_path":"","live_photo_timestamp":-1,"local_id":"","local_material_from":"","local_material_id":"52750fca-f0bc-4947-81c1-e6a2fd18e774","material_id":"","material_name":"1.7_20250128_1119_Haunting Dreams Unfulfilled_storyboard_01jjpvbd10fnyte73dxj682gn2.mp4","material_url":"","matting":{"custom_matting_id":"","enable_matting_stroke":false,"expansion":0,"feather":0,"flag":0,"has_use_quick_brush":false,"has_use_quick_eraser":false,"interactiveTime":[],"path":"","reverse":false,"strokes":[]},"media_path":"","multi_camera_info":null,"object_locked":null,"origin_material_id":"","path":"C:/Users/Computer/Downloads/1.7_20250128_1119_Haunting Dreams Unfulfilled_storyboard_01jjpvbd10fnyte73dxj682gn2.mp4","picture_from":"none","picture_set_category_id":"","picture_set_category_name":"","request_id":"","reverse_intensifies_path":"","reverse_path":"","smart_match_info":null,"smart_motion":null,"source":0,"source_platform":0,"stable":{"matrix_path":"","stable_level":0,"time_range":{"duration":0,"start":0}},"team_id":"","type":"video","video_algorithm":{"ai_background_configs":[],"ai_expression_driven":null,"ai_motion_driven":null,"aigc_generate":null,"algorithms":[],"complement_frame_config":null,"deflicker":null,"gameplay_configs":[],"motion_blur_config":null,"mouth_shape_driver":null,"noise_reduction":null,"path":"","quality_enhance":null,"smart_complement_frame":null,"super_resolution":null,"time_range":{"duration":9633333,"start":0}},"width":854},{"aigc_history_id":"","aigc_item_id":"","aigc_type":"none","audio_fade":null,"beauty_body_preset_id":"","beauty_face_auto_preset":{"name":"","preset_id":"","rate_map":""},"beauty_face_auto_preset_infos":[],"beauty_face_preset_infos":[],"cartoon_path":"","category_id":"","category_name":"local","check_flag":62978047,"crop":{"lower_left_x":0.0,"lower_left_y":1.0,"lower_right_x":1.0,"lower_right_y":1.0,"upper_left_x":0.0,"upper_left_y":0.0,"upper_right_x":1.0,"upper_right_y":0.0},"crop_ratio":"free","crop_scale":1.0,"duration":10000000,"extra_type_option":0,"formula_id":"","freeze":null,"has_audio":false,"has_sound_separated":false,"height":480,"id":"AC0FFD32-2113-4f0a-9256-196E8C330EE8","intensifies_audio_path":"","intensifies_path":"","is_ai_generate_content":false,"is_copyright":false,"is_text_edit_overdub":false,"is_unified_beauty_mode":false,"live_photo_cover_path":"","live_photo_timestamp":-1,"local_id":"","local_material_from":"","local_material_id":"eb84dce9-c183-444f-a77b-a22cd2d556fb","material_id":"","material_name":"2.3_20250211_1955_Ghostly Serenade_storyboard_01jkvtdsn1fw38z3388f462x2f(1).mp4","material_url":"","matting":{"custom_matting_id":"","enable_matting_stroke":false,"expansion":0,"feather":0,"flag":0,"has_use_quick_brush":false,"has_use_quick_eraser":false,"interactiveTime":[],"path":"","reverse":false,"strokes":[]},"media_path":"","multi_camera_info":null,"object_locked":null,"origin_material_id":"","path":"C:/Users/Computer/Downloads/2.3_20250211_1955_Ghostly Serenade_storyboard_01jkvtdsn1fw38z3388f462x2f(1).mp4","picture_from":"none","picture_set_category_id":"","picture_set_category_name":"","request_id":"","reverse_intensifies_path":"","reverse_path":"","smart_match_info":null,"smart_motion":null,"source":0,"source_platform":0,"stable":{"matrix_path":"","stable_level":0,"time_range":{"duration":0,"start":0}},"team_id":"","type":"video","video_algorithm":{"ai_background_configs":[],"ai_expression_driven":null,"ai_motion_driven":null,"aigc_generate":null,"algorithms":[],"complement_frame_config":null,"deflicker":null,"gameplay_configs":[],"motion_blur_config":null,"mouth_shape_driver":null,"noise_reduction":null,"path":"","quality_enhance":null,"smart_complement_frame":null,"super_resolution":null,"time_range":{"duration":8829003,"start":760330}},"width":854},{"aigc_history_id":"","aigc_item_id":"","aigc_type":"none","audio_fade":null,"beauty_body_preset_id":"","beauty_face_auto_preset":{"name":"","preset_id":"","rate_map":""},"beauty_face_auto_preset_infos":[],"beauty_face_preset_infos":[],"cartoon_path":"","category_id":"","category_name":"local","check_flag":62978047,"crop":{"lower_left_x":0.0,"lower_left_y":1.0,"lower_right_x":1.0,"lower_right_y":1.0,"upper_left_x":0.0,"upper_left_y":0.0,"upper_right_x":1.0,"upper_right_y":0.0},"crop_ratio":"free","crop_scale":1.0,"duration":10000000,"extra_type_option":0,"formula_id":"","freeze":null,"has_audio":false,"has_sound_separated":false,"height":480,"id":"3554AB62-89F0-48fe-81C2-D1766A318B9B","intensifies_audio_path":"","intensifies_path":"","is_ai_generate_content":false,"is_copyright":false,"is_text_edit_overdub":false,"is_unified_beauty_mode":false,"live_photo_cover_path":"","live_photo_timestamp":-1,"local_id":"","local_material_from":"","local_material_id":"eb84dce9-c183-444f-a77b-a22cd2d556fb","material_id":"","material_name":"2.3_20250211_1955_Ghostly Serenade_storyboard_01jkvtdsn1fw38z3388f462x2f(1).mp4","material_url":"","matting":{"custom_matting_id":"","enable_matting_stroke":false,"expansion":0,"feather":0,"flag":0,"has_use_quick_brush":false,"has_use_quick_eraser":false,"interactiveTime":[],"path":"","reverse":false,"strokes":[]},"media_path":"","multi_camera_info":null,"object_locked":null,"origin_material_id":"","path":"C:/Users/Computer/Downloads/2.3_20250211_1955_Ghostly Serenade_storyboard_01jkvtdsn1fw38z3388f462x2f(1).mp4","picture_from":"none","picture_set_category_id":"","picture_set_category_name":"","request_id":"","reverse_intensifies_path":"","reverse_path":"","smart_match_info":null,"smart_motion":null,"source":0,"source_platform":0,"stable":{"matrix_path":"","stable_level":0,"time_range":{"duration":0,"start":0}},"team_id":"","type":"video","video_algorithm":{"ai_background_configs":[],"ai_expression_driven":null,"ai_motion_driven":null,"aigc_generate":null,"algorithms":[],"complement_frame_config":null,"deflicker":null,"gameplay_configs":[],"motion_blur_config":null,"mouth_shape_driver":null,"noise_reduction":null,"path":"","quality_enhance":null,"smart_complement_frame":null,"super_resolution":null,"time_range":{"duration":6936667,"start":3063333}},"width":854},{"aigc_history_id":"","aigc_item_id":"","aigc_type":"none","audio_fade":null,"beauty_body_preset_id":"","beauty_face_auto_preset":{"name":"","preset_id":"","rate_map":""},"beauty_face_auto_preset_infos":[],"beauty_face_preset_infos":[],"cartoon_path":"","category_id":"","category_name":"local","check_flag":62978047,"crop":{"lower_left_x":0.0,"lower_left_y":1.0,"lower_right_x":1.0,"lower_right_y":1.0,"upper_left_x":0.0,"upper_left_y":0.0,"upper_right_x":1.0,"upper_right_y":0.0},"crop_ratio":"free","crop_scale":1.0,"duration":10000000,"extra_type_option":0,"formula_id":"","freeze":null,"has_audio":false,"has_sound_separated":false,"height":480,"id":"D7D94FAE-0F86-48cc-81BE-A706A6CFC56B","intensifies_audio_path":"","intensifies_path":"","is_ai_generate_content":false,"is_copyright":false,"is_text_edit_overdub":false,"is_unified_beauty_mode":false,"live_photo_cover_path":"","live_photo_timestamp":-1,"local_id":"","local_material_from":"","local_material_id":"60212b25-a678-442f-b3ad-1e710ce5625d","material_id":"","material_name":"2.4_20250211_2009_Graveyard Reflection_storyboard_01jkvv8xzpf6yr2aj7fwy0ddr0.mp4","material_url":"","matting":{"custom_matting_id":"","enable_matting_stroke":false,"expansion":0,"feather":0,"flag":0,"has_use_quick_brush":false,"has_use_quick_eraser":false,"interactiveTime":[],"path":"","reverse":false,"strokes":[]},"media_path":"","multi_camera_info":null,"object_locked":null,"origin_material_id":"","path":"C:/Users/Computer/Downloads/2.4_20250211_2009_Graveyard Reflection_storyboard_01jkvv8xzpf6yr2aj7fwy0ddr0.mp4","picture_from":"none","picture_set_category_id":"","picture_set_category_name":"","request_id":"","reverse_intensifies_path":"","reverse_path":"","smart_match_info":null,"smart_motion":null,"source":0,"source_platform":0,"stable":{"matrix_path":"","stable_level":0,"time_range":{"duration":0,"start":0}},"team_id":"","type":"video","video_algorithm":{"ai_background_configs":[],"ai_expression_driven":null,"ai_motion_driven":null,"aigc_generate":null,"algorithms":[],"complement_frame_config":null,"deflicker":null,"gameplay_configs":[],"motion_blur_config":null,"mouth_shape_driver":null,"noise_reduction":null,"path":"","quality_enhance":null,"smart_complement_frame":null,"super_resolution":null,"time_range":{"duration":7566667,"start":2433333}},"width":854},{"aigc_history_id":"","aigc_item_id":"","aigc_type":"none","audio_fade":null,"beauty_body_preset_id":"","beauty_face_auto_preset":{"name":"","preset_id":"","rate_map":""},"beauty_face_auto_preset_infos":[],"beauty_face_preset_infos":[],"cartoon_path":"","category_id":"","category_name":"local","check_flag":62978047,"crop":{"lower_left_x":0.0,"lower_left_y":1.0,"lower_right_x":1.0,"lower_right_y":1.0,"upper_left_x":0.0,"upper_left_y":0.0,"upper_right_x":1.0,"upper_right_y":0.0},"crop_ratio":"free","crop_scale":1.0,"duration":10000000,"extra_type_option":0,"formula_id":"","freeze":null,"has_audio":false,"has_sound_separated":false,"height":480,"id":"2CDDE467-D671-4314-848F-A6EF4F553F2F","intensifies_audio_path":"","intensifies_path":"","is_ai_generate_content":false,"is_copyright":false,"is_text_edit_overdub":false,"is_unified_beauty_mode":false,"live_photo_cover_path":"","live_photo_timestamp":-1,"local_id":"","local_material_from":"","local_material_id":"5b7e9da9-961c-4b92-82c9-da5d01ca2008","material_id":"","material_name":"2.1_20250211_1952_Ethereal Night Musicians_storyboard_01jkvt992vfxsvhpwdjy4gkq48.mp4","material_url":"","matting":{"custom_matting_id":"","enable_matting_stroke":false,"expansion":0,"feather":0,"flag":0,"has_use_quick_brush":false,"has_use_quick_eraser":false,"interactiveTime":[],"path":"","reverse":false,"strokes":[]},"media_path":"","multi_camera_info":null,"object_locked":null,"origin_material_id":"","path":"C:/Users/Computer/Downloads/2.1_20250211_1952_Ethereal Night Musicians_storyboard_01jkvt992vfxsvhpwdjy4gkq48.mp4","picture_from":"none","picture_set_category_id":"","picture_set_category_name":"","request_id":"","reverse_intensifies_path":"","reverse_path":"","smart_match_info":null,"smart_motion":null,"source":0,"source_platform":0,"stable":{"matrix_path":"","stable_level":0,"time_range":{"duration":0,"start":0}},"team_id":"","type":"video","video_algorithm":{"ai_background_configs":[],"ai_expression_driven":null,"ai_motion_driven":null,"aigc_generate":null,"algorithms":[],"complement_frame_config":null,"deflicker":null,"gameplay_configs":[],"motion_blur_config":null,"mouth_shape_driver":null,"noise_reduction":null,"path":"","quality_enhance":null,"smart_complement_frame":null,"super_resolution":null,"time_range":{"duration":7733333,"start":0}},"width":854},{"aigc_history_id":"","aigc_item_id":"","aigc_type":"none","audio_fade":null,"beauty_body_preset_id":"","beauty_face_auto_preset":{"name":"","preset_id":"","rate_map":""},"beauty_face_auto_preset_infos":[],"beauty_face_preset_infos":[],"cartoon_path":"","category_id":"","category_name":"","check_flag":62978047,"crop":{"lower_left_x":0.0,"lower_left_y":1.0,"lower_right_x":1.0,"lower_right_y":1.0,"upper_left_x":0.0,"upper_left_y":0.0,"upper_right_x":1.0,"upper_right_y":0.0},"crop_ratio":"free","crop_scale":1.0,"duration":10000000,"extra_type_option":0,"formula_id":"","freeze":null,"has_audio":false,"has_sound_separated":false,"height":480,"id":"A197ADB7-68B6-4a6a-9479-C61B020A8752","intensifies_audio_path":"","intensifies_path":"","is_ai_generate_content":false,"is_copyright":false,"is_text_edit_overdub":false,"is_unified_beauty_mode":false,"live_photo_cover_path":"","live_photo_timestamp":-1,"local_id":"","local_material_from":"","local_material_id":"","material_id":"","material_name":"1.2_20250211_1915_Ethereal Theater Spectacle_storyboard_01jkvr5q26em8a8hmyx49573a7.mp4","material_url":"","matting":{"custom_matting_id":"","enable_matting_stroke":false,"expansion":0,"feather":0,"flag":0,"has_use_quick_brush":false,"has_use_quick_eraser":false,"interactiveTime":[],"path":"","reverse":false,"strokes":[]},"media_path":"","multi_camera_info":null,"object_locked":null,"origin_material_id":"","path":"C:/Users/Computer/Downloads/1.2_20250211_1915_Ethereal Theater Spectacle_storyboard_01jkvr5q26em8a8hmyx49573a7.mp4","picture_from":"none","picture_set_category_id":"","picture_set_category_name":"","request_id":"","reverse_intensifies_path":"","reverse_path":"","smart_match_info":null,"smart_motion":null,"source":0,"source_platform":0,"stable":{"matrix_path":"","stable_level":0,"time_range":{"duration":0,"start":0}},"team_id":"","type":"video","video_algorithm":{"ai_background_configs":[],"ai_expression_driven":null,"ai_motion_driven":null,"aigc_generate":null,"algorithms":[],"complement_frame_config":null,"deflicker":null,"gameplay_configs":[],"motion_blur_config":null,"mouth_shape_driver":null,"noise_reduction":null,"path":"","quality_enhance":null,"smart_complement_frame":null,"super_resolution":null,"time_range":{"duration":7733333,"start":1200000}},"width":854},{"aigc_history_id":"","aigc_item_id":"","aigc_type":"none","audio_fade":null,"beauty_body_preset_id":"","beauty_face_auto_preset":{"name":"","preset_id":"","rate_map":""},"beauty_face_auto_preset_infos":[],"beauty_face_preset_infos":[],"cartoon_path":"","category_id":"","category_name":"","check_flag":62978047,"crop":{"lower_left_x":0.0,"lower_left_y":1.0,"lower_right_x":1.0,"lower_right_y":1.0,"upper_left_x":0.0,"upper_left_y":0.0,"upper_right_x":1.0,"upper_right_y":0.0},"crop_ratio":"free","crop_scale":1.0,"duration":10000000,"extra_type_option":0,"formula_id":"","freeze":null,"has_audio":false,"has_sound_separated":false,"height":480,"id":"25AB3CED-4E81-4ef5-AE7A-1527508BC4A4","intensifies_audio_path":"","intensifies_path":"","is_ai_generate_content":false,"is_copyright":false,"is_text_edit_overdub":false,"is_unified_beauty_mode":false,"live_photo_cover_path":"","live_photo_timestamp":-1,"local_id":"","local_material_from":"","local_material_id":"","material_id":"","material_name":"1.2_20250211_1915_Ethereal Theater Spectacle_storyboard_01jkvr5q26em8a8hmyx49573a7.mp4","material_url":"","matting":{"custom_matting_id":"","enable_matting_stroke":false,"expansion":0,"feather":0,"flag":0,"has_use_quick_brush":false,"has_use_quick_eraser":false,"interactiveTime":[],"path":"","reverse":false,"strokes":[]},"media_path":"","multi_camera_info":null,"object_locked":null,"origin_material_id":"","path":"C:/Users/Computer/Downloads/1.2_20250211_1915_Ethereal Theater Spectacle_storyboard_01jkvr5q26em8a8hmyx49573a7.mp4","picture_from":"none","picture_set_category_id":"","picture_set_category_name":"","request_id":"","reverse_intensifies_path":"","reverse_path":"","smart_match_info":null,"smart_motion":null,"source":0,"source_platform":0,"stable":{"matrix_path":"","stable_level":0,"time_range":{"duration":0,"start":0}},"team_id":"","type":"video","video_algorithm":{"ai_background_configs":[],"ai_expression_driven":null,"ai_motion_driven":null,"aigc_generate":null,"algorithms":[],"complement_frame_config":null,"deflicker":null,"gameplay_configs":[],"motion_blur_config":null,"mouth_shape_driver":null,"noise_reduction":null,"path":"","quality_enhance":null,"smart_complement_frame":null,"super_resolution":null,"time_range":{"duration":10000000,"start":0}},"width":854},{"aigc_history_id":"","aigc_item_id":"","aigc_type":"none","audio_fade":null,"beauty_body_preset_id":"","beauty_face_auto_preset":{"name":"","preset_id":"","rate_map":""},"beauty_face_auto_preset_infos":[],"beauty_face_preset_infos":[],"cartoon_path":"","category_id":"","category_name":"","check_flag":62978047,"crop":{"lower_left_x":0.0,"lower_left_y":1.0,"lower_right_x":1.0,"lower_right_y":1.0,"upper_left_x":0.0,"upper_left_y":0.0,"upper_right_x":1.0,"upper_right_y":0.0},"crop_ratio":"free","crop_scale":1.0,"duration":10000000,"extra_type_option":0,"formula_id":"","freeze":null,"has_audio":false,"has_sound_separated":false,"height":480,"id":"84451F06-0334-4991-870E-38F49C6A1CC1","intensifies_audio_path":"","intensifies_path":"","is_ai_generate_content":false,"is_copyright":false,"is_text_edit_overdub":false,"is_unified_beauty_mode":false,"live_photo_cover_path":"","live_photo_timestamp":-1,"local_id":"","local_material_from":"","local_material_id":"","material_id":"","material_name":"1.3_20250211_1917_Ethereal Stage Presence_storyboard_01jkvr8xxzeqhbcgf52kngfcvg.mp4","material_url":"","matting":{"custom_matting_id":"","enable_matting_stroke":false,"expansion":0,"feather":0,"flag":0,"has_use_quick_brush":false,"has_use_quick_eraser":false,"interactiveTime":[],"path":"","reverse":false,"strokes":[]},"media_path":"","multi_camera_info":null,"object_locked":null,"origin_material_id":"","path":"C:/Users/Computer/Downloads/1.3_20250211_1917_Ethereal Stage Presence_storyboard_01jkvr8xxzeqhbcgf52kngfcvg.mp4","picture_from":"none","picture_set_category_id":"","picture_set_category_name":"","request_id":"","reverse_intensifies_path":"","reverse_path":"","smart_match_info":null,"smart_motion":null,"source":0,"source_platform":0,"stable":{"matrix_path":"","stable_level":0,"time_range":{"duration":0,"start":0}},"team_id":"","type":"video","video_algorithm":{"ai_background_configs":[],"ai_expression_driven":null,"ai_motion_driven":null,"aigc_generate":null,"algorithms":[],"complement_frame_config":null,"deflicker":null,"gameplay_configs":[],"motion_blur_config":null,"mouth_shape_driver":null,"noise_reduction":null,"path":"","quality_enhance":null,"smart_complement_frame":null,"super_resolution":null,"time_range":{"duration":10000000,"start":0}},"width":854},{"aigc_history_id":"","aigc_item_id":"","aigc_type":"none","audio_fade":null,"beauty_body_preset_id":"","beauty_face_auto_preset":{"name":"","preset_id":"","rate_map":""},"beauty_face_auto_preset_infos":[],"beauty_face_preset_infos":[],"cartoon_path":"","category_id":"","category_name":"","check_flag":62978047,"crop":{"lower_left_x":0.0,"lower_left_y":1.0,"lower_right_x":1.0,"lower_right_y":1.0,"upper_left_x":0.0,"upper_left_y":0.0,"upper_right_x":1.0,"upper_right_y":0.0},"crop_ratio":"free","crop_scale":1.0,"duration":10000000,"extra_type_option":0,"formula_id":"","freeze":null,"has_audio":false,"has_sound_separated":false,"height":480,"id":"ED1B00C6-DAA5-4294-AA67-12A601732D19","intensifies_audio_path":"","intensifies_path":"","is_ai_generate_content":false,"is_copyright":false,"is_text_edit_overdub":false,"is_unified_beauty_mode":false,"live_photo_cover_path":"","live_photo_timestamp":-1,"local_id":"","local_material_from":"","local_material_id":"","material_id":"","material_name":"1.3_20250211_1917_Ethereal Stage Presence_storyboard_01jkvr8xxzeqhbcgf52kngfcvg.mp4","material_url":"","matting":{"custom_matting_id":"","enable_matting_stroke":false,"expansion":0,"feather":0,"flag":0,"has_use_quick_brush":false,"has_use_quick_eraser":false,"interactiveTime":[],"path":"","reverse":false,"strokes":[]},"media_path":"","multi_camera_info":null,"object_locked":null,"origin_material_id":"","path":"C:/Users/Computer/Downloads/1.3_20250211_1917_Ethereal Stage Presence_storyboard_01jkvr8xxzeqhbcgf52kngfcvg.mp4","picture_from":"none","picture_set_category_id":"","picture_set_category_name":"","request_id":"","reverse_intensifies_path":"","reverse_path":"","smart_match_info":null,"smart_motion":null,"source":0,"source_platform":0,"stable":{"matrix_path":"","stable_level":0,"time_range":{"duration":0,"start":0}},"team_id":"","type":"video","video_algorithm":{"ai_background_configs":[],"ai_expression_driven":null,"ai_motion_driven":null,"aigc_generate":null,"algorithms":[],"complement_frame_config":null,"deflicker":null,"gameplay_configs":[],"motion_blur_config":null,"mouth_shape_driver":null,"noise_reduction":null,"path":"","quality_enhance":null,"smart_complement_frame":null,"super_resolution":null,"time_range":{"duration":10000000,"start":0}},"width":854},{"aigc_history_id":"","aigc_item_id":"","aigc_type":"none","audio_fade":null,"beauty_body_preset_id":"","beauty_face_auto_preset":{"name":"","preset_id":"","rate_map":""},"beauty_face_auto_preset_infos":[],"beauty_face_preset_infos":[],"cartoon_path":"","category_id":"","category_name":"local","check_flag":62978047,"crop":{"lower_left_x":0.0,"lower_left_y":1.0,"lower_right_x":1.0,"lower_right_y":1.0,"upper_left_x":0.0,"upper_left_y":0.0,"upper_right_x":1.0,"upper_right_y":0.0},"crop_ratio":"free","crop_scale":1.0,"duration":10000000,"extra_type_option":0,"formula_id":"","freeze":null,"has_audio":false,"has_sound_separated":false,"height":480,"id":"C8C3C64A-401A-4802-82F0-8C0B7879F02A","intensifies_audio_path":"","intensifies_path":"","is_ai_generate_content":false,"is_copyright":false,"is_text_edit_overdub":false,"is_unified_beauty_mode":false,"live_photo_cover_path":"","live_photo_timestamp":-1,"local_id":"","local_material_from":"","local_material_id":"3d2103f6-5dec-41ff-b620-0fa0747c6d3a","material_id":"","material_name":"1.36_20250211_1921_Ethereal Stage Presence_storyboard_01jkvrg3cqf32966654s14ks26.mp4","material_url":"","matting":{"custom_matting_id":"","enable_matting_stroke":false,"expansion":0,"feather":0,"flag":0,"has_use_quick_brush":false,"has_use_quick_eraser":false,"interactiveTime":[],"path":"","reverse":false,"strokes":[]},"media_path":"","multi_camera_info":null,"object_locked":null,"origin_material_id":"","path":"C:/Users/Computer/Downloads/1.36_20250211_1921_Ethereal Stage Presence_storyboard_01jkvrg3cqf32966654s14ks26.mp4","picture_from":"none","picture_set_category_id":"","picture_set_category_name":"","request_id":"","reverse_intensifies_path":"","reverse_path":"","smart_match_info":null,"smart_motion":null,"source":0,"source_platform":0,"stable":{"matrix_path":"","stable_level":0,"time_range":{"duration":0,"start":0}},"team_id":"","type":"video","video_algorithm":{"ai_background_configs":[],"ai_expression_driven":null,"ai_motion_driven":null,"aigc_generate":null,"algorithms":[],"complement_frame_config":null,"deflicker":null,"gameplay_configs":[],"motion_blur_config":null,"mouth_shape_driver":null,"noise_reduction":null,"path":"","quality_enhance":null,"smart_complement_frame":null,"super_resolution":null,"time_range":{"duration":8233333,"start":0}},"width":854},{"aigc_history_id":"","aigc_item_id":"","aigc_type":"none","audio_fade":null,"beauty_body_preset_id":"","beauty_face_auto_preset":{"name":"","preset_id":"","rate_map":""},"beauty_face_auto_preset_infos":[],"beauty_face_preset_infos":[],"cartoon_path":"","category_id":"","category_name":"local","check_flag":62978047,"crop":{"lower_left_x":0.0,"lower_left_y":1.0,"lower_right_x":1.0,"lower_right_y":1.0,"upper_left_x":0.0,"upper_left_y":0.0,"upper_right_x":1.0,"upper_right_y":0.0},"crop_ratio":"free","crop_scale":1.0,"duration":10000000,"extra_type_option":0,"formula_id":"","freeze":null,"has_audio":false,"has_sound_separated":false,"height":480,"id":"1FD3C6F4-E38D-448d-8FD1-A053815731D4","intensifies_audio_path":"","intensifies_path":"","is_ai_generate_content":false,"is_copyright":false,"is_text_edit_overdub":false,"is_unified_beauty_mode":false,"live_photo_cover_path":"","live_photo_timestamp":-1,"local_id":"","local_material_from":"","local_material_id":"3d2103f6-5dec-41ff-b620-0fa0747c6d3a","material_id":"","material_name":"1.36_20250211_1921_Ethereal Stage Presence_storyboard_01jkvrg3cqf32966654s14ks26.mp4","material_url":"","matting":{"custom_matting_id":"","enable_matting_stroke":false,"expansion":0,"feather":0,"flag":0,"has_use_quick_brush":false,"has_use_quick_eraser":false,"interactiveTime":[],"path":"","reverse":false,"strokes":[]},"media_path":"","multi_camera_info":null,"object_locked":null,"origin_material_id":"","path":"C:/Users/Computer/Downloads/1.36_20250211_1921_Ethereal Stage Presence_storyboard_01jkvrg3cqf32966654s14ks26.mp4","picture_from":"none","picture_set_category_id":"","picture_set_category_name":"","request_id":"","reverse_intensifies_path":"","reverse_path":"","smart_match_info":null,"smart_motion":null,"source":0,"source_platform":0,"stable":{"matrix_path":"","stable_level":0,"time_range":{"duration":0,"start":0}},"team_id":"","type":"video","video_algorithm":{"ai_background_configs":[],"ai_expression_driven":null,"ai_motion_driven":null,"aigc_generate":null,"algorithms":[],"complement_frame_config":null,"deflicker":null,"gameplay_configs":[],"motion_blur_config":null,"mouth_shape_driver":null,"noise_reduction":null,"path":"","quality_enhance":null,"smart_complement_frame":null,"super_resolution":null,"time_range":{"duration":10000000,"start":0}},"width":854},{"aigc_history_id":"","aigc_item_id":"","aigc_type":"none","audio_fade":null,"beauty_body_preset_id":"","beauty_face_auto_preset":{"name":"","preset_id":"","rate_map":""},"beauty_face_auto_preset_infos":[],"beauty_face_preset_infos":[],"cartoon_path":"","category_id":"","category_name":"local","check_flag":62978047,"crop":{"lower_left_x":0.0,"lower_left_y":1.0,"lower_right_x":1.0,"lower_right_y":1.0,"upper_left_x":0.0,"upper_left_y":0.0,"upper_right_x":1.0,"upper_right_y":0.0},"crop_ratio":"free","crop_scale":1.0,"duration":10000000,"extra_type_option":0,"formula_id":"","freeze":null,"has_audio":false,"has_sound_separated":false,"height":480,"id":"863CBBF0-AE43-4e36-903C-F07FE0C1CA46","intensifies_audio_path":"","intensifies_path":"","is_ai_generate_content":false,"is_copyright":false,"is_text_edit_overdub":false,"is_unified_beauty_mode":false,"live_photo_cover_path":"","live_photo_timestamp":-1,"local_id":"","local_material_from":"","local_material_id":"d418d0dc-78ce-45ab-be9c-03408210fb56","material_id":"","material_name":"1.4_20250211_1924_Urban Isolation Cascade_storyboard_01jkvrnmxdebqr2e4c595hp7s5.mp4","material_url":"","matting":{"custom_matting_id":"","enable_matting_stroke":false,"expansion":0,"feather":0,"flag":0,"has_use_quick_brush":false,"has_use_quick_eraser":false,"interactiveTime":[],"path":"","reverse":false,"strokes":[]},"media_path":"","multi_camera_info":null,"object_locked":null,"origin_material_id":"","path":"C:/Users/Computer/Downloads/1.4_20250211_1924_Urban Isolation Cascade_storyboard_01jkvrnmxdebqr2e4c595hp7s5.mp4","picture_from":"none","picture_set_category_id":"","picture_set_category_name":"","request_id":"","reverse_intensifies_path":"","reverse_path":"","smart_match_info":null,"smart_motion":null,"source":0,"source_platform":0,"stable":{"matrix_path":"","stable_level":0,"time_range":{"duration":0,"start":0}},"team_id":"","type":"video","video_algorithm":{"ai_background_configs":[],"ai_expression_driven":null,"ai_motion_driven":null,"aigc_generate":null,"algorithms":[],"complement_frame_config":null,"deflicker":null,"gameplay_configs":[],"motion_blur_config":null,"mouth_shape_driver":null,"noise_reduction":null,"path":"","quality_enhance":null,"smart_complement_frame":null,"super_resolution":null,"time_range":{"duration":10000000,"start":0}},"width":854},{"aigc_history_id":"","aigc_item_id":"","aigc_type":"none","audio_fade":null,"beauty_body_preset_id":"","beauty_face_auto_preset":{"name":"","preset_id":"","rate_map":""},"beauty_face_auto_preset_infos":[],"beauty_face_preset_infos":[],"cartoon_path":"","category_id":"","category_name":"local","check_flag":62978047,"crop":{"lower_left_x":0.0,"lower_left_y":1.0,"lower_right_x":1.0,"lower_right_y":1.0,"upper_left_x":0.0,"upper_left_y":0.0,"upper_right_x":1.0,"upper_right_y":0.0},"crop_ratio":"free","crop_scale":1.0,"duration":10000000,"extra_type_option":0,"formula_id":"","freeze":null,"has_audio":false,"has_sound_separated":false,"height":480,"id":"DF4D806B-78CA-4567-A554-8F58F72BA298","intensifies_audio_path":"","intensifies_path":"","is_ai_generate_content":false,"is_copyright":false,"is_text_edit_overdub":false,"is_unified_beauty_mode":false,"live_photo_cover_path":"","live_photo_timestamp":-1,"local_id":"","local_material_from":"","local_material_id":"61d5f268-410c-456e-b5b1-b7741f4be491","material_id":"","material_name":"1.5_20250211_1926_Dimly Lit Lethargy_storyboard_01jkvrssv3fh7v2ze3128czzkj.mp4","material_url":"","matting":{"custom_matting_id":"","enable_matting_stroke":false,"expansion":0,"feather":0,"flag":0,"has_use_quick_brush":false,"has_use_quick_eraser":false,"interactiveTime":[],"path":"","reverse":false,"strokes":[]},"media_path":"","multi_camera_info":null,"object_locked":null,"origin_material_id":"","path":"C:/Users/Computer/Downloads/1.5_20250211_1926_Dimly Lit Lethargy_storyboard_01jkvrssv3fh7v2ze3128czzkj.mp4","picture_from":"none","picture_set_category_id":"","picture_set_category_name":"","request_id":"","reverse_intensifies_path":"","reverse_path":"","smart_match_info":null,"smart_motion":null,"source":0,"source_platform":0,"stable":{"matrix_path":"","stable_level":0,"time_range":{"duration":0,"start":0}},"team_id":"","type":"video","video_algorithm":{"ai_background_configs":[],"ai_expression_driven":null,"ai_motion_driven":null,"aigc_generate":null,"algorithms":[],"complement_frame_config":null,"deflicker":null,"gameplay_configs":[],"motion_blur_config":null,"mouth_shape_driver":null,"noise_reduction":null,"path":"","quality_enhance":null,"smart_complement_frame":null,"super_resolution":null,"time_range":{"duration":10000000,"start":0}},"width":854},{"aigc_history_id":"","aigc_item_id":"","aigc_type":"none","audio_fade":null,"beauty_body_preset_id":"","beauty_face_auto_preset":{"name":"","preset_id":"","rate_map":""},"beauty_face_auto_preset_infos":[],"beauty_face_preset_infos":[],"cartoon_path":"","category_id":"","category_name":"local","check_flag":62978047,"crop":{"lower_left_x":0.0,"lower_left_y":1.0,"lower_right_x":1.0,"lower_right_y":1.0,"upper_left_x":0.0,"upper_left_y":0.0,"upper_right_x":1.0,"upper_right_y":0.0},"crop_ratio":"free","crop_scale":1.0,"duration":10000000,"extra_type_option":0,"formula_id":"","freeze":null,"has_audio":false,"has_sound_separated":false,"height":480,"id":"221D426B-EA07-46a9-82DD-64FFE2E19DD2","intensifies_audio_path":"","intensifies_path":"","is_ai_generate_content":false,"is_copyright":false,"is_text_edit_overdub":false,"is_unified_beauty_mode":false,"live_photo_cover_path":"","live_photo_timestamp":-1,"local_id":"","local_material_from":"","local_material_id":"61d5f268-410c-456e-b5b1-b7741f4be491","material_id":"","material_name":"1.5_20250211_1926_Dimly Lit Lethargy_storyboard_01jkvrssv3fh7v2ze3128czzkj.mp4","material_url":"","matting":{"custom_matting_id":"","enable_matting_stroke":false,"expansion":0,"feather":0,"flag":0,"has_use_quick_brush":false,"has_use_quick_eraser":false,"interactiveTime":[],"path":"","reverse":false,"strokes":[]},"media_path":"","multi_camera_info":null,"object_locked":null,"origin_material_id":"","path":"C:/Users/Computer/Downloads/1.5_20250211_1926_Dimly Lit Lethargy_storyboard_01jkvrssv3fh7v2ze3128czzkj.mp4","picture_from":"none","picture_set_category_id":"","picture_set_category_name":"","request_id":"","reverse_intensifies_path":"","reverse_path":"","smart_match_info":null,"smart_motion":null,"source":0,"source_platform":0,"stable":{"matrix_path":"","stable_level":0,"time_range":{"duration":0,"start":0}},"team_id":"","type":"video","video_algorithm":{"ai_background_configs":[],"ai_expression_driven":null,"ai_motion_driven":null,"aigc_generate":null,"algorithms":[],"complement_frame_config":null,"deflicker":null,"gameplay_configs":[],"motion_blur_config":null,"mouth_shape_driver":null,"noise_reduction":null,"path":"","quality_enhance":null,"smart_complement_frame":null,"super_resolution":null,"time_range":{"duration":10000000,"start":0}},"width":854},{"aigc_history_id":"","aigc_item_id":"","aigc_type":"none","audio_fade":null,"beauty_body_preset_id":"","beauty_face_auto_preset":{"name":"","preset_id":"","rate_map":""},"beauty_face_auto_preset_infos":[],"beauty_face_preset_infos":[],"cartoon_path":"","category_id":"","category_name":"","check_flag":62978047,"crop":{"lower_left_x":0.0,"lower_left_y":1.0,"lower_right_x":1.0,"lower_right_y":1.0,"upper_left_x":0.0,"upper_left_y":0.0,"upper_right_x":1.0,"upper_right_y":0.0},"crop_ratio":"free","crop_scale":1.0,"duration":10000000,"extra_type_option":0,"formula_id":"","freeze":null,"has_audio":false,"has_sound_separated":false,"height":480,"id":"C6CC1F17-34A2-4926-BDFD-918F5725F0C4","intensifies_audio_path":"","intensifies_path":"","is_ai_generate_content":false,"is_copyright":false,"is_text_edit_overdub":false,"is_unified_beauty_mode":false,"live_photo_cover_path":"","live_photo_timestamp":-1,"local_id":"","local_material_from":"","local_material_id":"","material_id":"","material_name":"1.6_20250211_1927_Quiet Night Indoors_storyboard_01jkvrw0r9ewr8pap9mwtn3xqh.mp4","material_url":"","matting":{"custom_matting_id":"","enable_matting_stroke":false,"expansion":0,"feather":0,"flag":0,"has_use_quick_brush":false,"has_use_quick_eraser":false,"interactiveTime":[],"path":"","reverse":false,"strokes":[]},"media_path":"","multi_camera_info":null,"object_locked":null,"origin_material_id":"","path":"C:/Users/Computer/Downloads/1.6_20250211_1927_Quiet Night Indoors_storyboard_01jkvrw0r9ewr8pap9mwtn3xqh.mp4","picture_from":"none","picture_set_category_id":"","picture_set_category_name":"","request_id":"","reverse_intensifies_path":"","reverse_path":"","smart_match_info":null,"smart_motion":null,"source":0,"source_platform":0,"stable":{"matrix_path":"","stable_level":0,"time_range":{"duration":0,"start":0}},"team_id":"","type":"video","video_algorithm":{"ai_background_configs":[],"ai_expression_driven":null,"ai_motion_driven":null,"aigc_generate":null,"algorithms":[],"complement_frame_config":null,"deflicker":null,"gameplay_configs":[],"motion_blur_config":null,"mouth_shape_driver":null,"noise_reduction":null,"path":"","quality_enhance":null,"smart_complement_frame":null,"super_resolution":null,"time_range":{"duration":6966666,"start":0}},"width":854},{"aigc_history_id":"","aigc_item_id":"","aigc_type":"none","audio_fade":null,"beauty_body_preset_id":"","beauty_face_auto_preset":{"name":"","preset_id":"","rate_map":""},"beauty_face_auto_preset_infos":[],"beauty_face_preset_infos":[],"cartoon_path":"","category_id":"","category_name":"","check_flag":62978047,"crop":{"lower_left_x":0.0,"lower_left_y":1.0,"lower_right_x":1.0,"lower_right_y":1.0,"upper_left_x":0.0,"upper_left_y":0.0,"upper_right_x":1.0,"upper_right_y":0.0},"crop_ratio":"free","crop_scale":1.0,"duration":3000000,"extra_type_option":0,"formula_id":"","freeze":null,"has_audio":true,"has_sound_separated":false,"height":540,"id":"1351CAAF-8606-483a-A7C4-F1CF5C76DD1E","intensifies_audio_path":"","intensifies_path":"","is_ai_generate_content":false,"is_copyright":false,"is_text_edit_overdub":false,"is_unified_beauty_mode":false,"live_photo_cover_path":"","live_photo_timestamp":-1,"local_id":"","local_material_from":"","local_material_id":"","material_id":"","material_name":"black.mp4","material_url":"","matting":{"custom_matting_id":"","enable_matting_stroke":false,"expansion":0,"feather":0,"flag":0,"has_use_quick_brush":false,"has_use_quick_eraser":false,"interactiveTime":[],"path":"","reverse":false,"strokes":[]},"media_path":"","multi_camera_info":null,"object_locked":null,"origin_material_id":"","path":"C:/Users/Computer/Videos/black.mp4","picture_from":"none","picture_set_category_id":"","picture_set_category_name":"","request_id":"","reverse_intensifies_path":"","reverse_path":"","smart_match_info":null,"smart_motion":null,"source":0,"source_platform":0,"stable":{"matrix_path":"","stable_level":0,"time_range":{"duration":0,"start":0}},"team_id":"","type":"video","video_algorithm":{"ai_background_configs":[],"ai_expression_driven":null,"ai_motion_driven":null,"aigc_generate":null,"algorithms":[],"complement_frame_config":null,"deflicker":null,"gameplay_configs":[],"motion_blur_config":null,"mouth_shape_driver":null,"noise_reduction":null,"path":"","quality_enhance":null,"smart_complement_frame":null,"super_resolution":null,"time_range":{"duration":3000000,"start":0}},"width":960}],"vocal_beautifys":[],"vocal_separations":[{"choice":0,"id":"7B74A884-0AC7-49a0-B863-54FBD38D279D","production_path":"","removed_sounds":[],"time_range":null,"type":"vocal_separation"},{"choice":0,"id":"030AD6F0-D4BE-4280-8800-A586B81FBC62","production_path":"","removed_sounds":[],"time_range":null,"type":"vocal_separation"},{"choice":0,"id":"FC3D0C4D-4817-4b76-896D-8CA94D3C0264","production_path":"","removed_sounds":[],"time_range":null,"type":"vocal_separation"},{"choice":0,"id":"9DE7BA0A-C542-4312-B6FA-9315E680A2F5","production_path":"","removed_sounds":[],"time_range":null,"type":"vocal_separation"},{"choice":0,"id":"3D204EF7-5E29-4b2a-8251-ACCEC0A113FC","production_path":"","removed_sounds":[],"time_range":null,"type":"vocal_separation"},{"choice":0,"id":"2EB82040-7EAC-440d-B27F-9CCB50B1F754","production_path":"","removed_sounds":[],"time_range":null,"type":"vocal_separation"},{"choice":0,"id":"7C52AA97-6710-4a10-8D42-ECC0AB9899A7","production_path":"","removed_sounds":[],"time_range":null,"type":"vocal_separation"},{"choice":0,"id":"E85A50D7-120C-4e01-8066-B37530E174E7","production_path":"","removed_sounds":[],"time_range":null,"type":"vocal_separation"},{"choice":0,"id":"2BDAA02F-D1A1-4afb-B7FE-6951169F9EE4","production_path":"","removed_sounds":[],"time_range":null,"type":"vocal_separation"},{"choice":0,"id":"B0B3AE33-FDFF-4821-A9CA-6DC02FEB27B9","production_path":"","removed_sounds":[],"time_range":null,"type":"vocal_separation"},{"choice":0,"id":"FE5F97A1-1596-499a-AD5B-106D0A3AAB60","production_path":"","removed_sounds":[],"time_range":null,"type":"vocal_separation"},{"choice":0,"id":"A63E2A44-7222-4e3b-88AD-7DBE7EBD8E7E","production_path":"","removed_sounds":[],"time_range":null,"type":"vocal_separation"},{"choice":0,"id":"938A571C-3B5E-43f6-8202-ECC48DA253FC","production_path":"","removed_sounds":[],"time_range":null,"type":"vocal_separation"},{"choice":0,"id":"20B30DBB-D2F0-42bc-A0E6-0A30BD4AA6E8","production_path":"","removed_sounds":[],"time_range":null,"type":"vocal_separation"},{"choice":0,"id":"74CD29A6-1481-4310-BE08-EFEC8B80207A","production_path":"","removed_sounds":[],"time_range":null,"type":"vocal_separation"},{"choice":0,"id":"34F6D246-4D77-410e-8341-F7F9CC54DBD0","production_path":"","removed_sounds":[],"time_range":null,"type":"vocal_separation"},{"choice":0,"id":"00B90AA8-743F-4dc0-AB30-7F7A6B100561","production_path":"","removed_sounds":[],"time_range":null,"type":"vocal_separation"},{"choice":0,"id":"4581486F-6859-415b-930A-850D05AE0D8F","production_path":"","removed_sounds":[],"time_range":null,"type":"vocal_separation"},{"choice":0,"id":"05D2A044-D80A-43fe-AF42-7D365E04B0BA","production_path":"","removed_sounds":[],"time_range":null,"type":"vocal_separation"},{"choice":0,"id":"E829B799-71DC-418a-B919-93787D95EEBA","production_path":"","removed_sounds":[],"time_range":null,"type":"vocal_separation"},{"choice":0,"id":"0C6D1682-2F24-48c0-8C51-0B9B7DA0F9F9","production_path":"","removed_sounds":[],"time_range":null,"type":"vocal_separation"},{"choice":0,"id":"0F34A6AD-1AEE-4d4f-8DBF-C71CD8C0CB9C","production_path":"","removed_sounds":[],"time_range":null,"type":"vocal_separation"},{"choice":0,"id":"B3F06A02-B403-4ff6-A835-C21F3B72DF6D","production_path":"","removed_sounds":[],"time_range":null,"type":"vocal_separation"},{"choice":0,"id":"AB73A938-9FFF-4fa5-89F2-9392ED459D7E","production_path":"","removed_sounds":[],"time_range":null,"type":"vocal_separation"},{"choice":0,"id":"B767E691-D533-4feb-87F5-C1BC9BA480F4","production_path":"","removed_sounds":[],"time_range":null,"type":"vocal_separation"},{"choice":0,"id":"FCF7B7CF-D3B6-4835-923A-343A1754E80C","production_path":"","removed_sounds":[],"time_range":null,"type":"vocal_separation"},{"choice":0,"id":"BF7A0285-F406-4c99-AD36-87C7BF97C450","production_path":"","removed_sounds":[],"time_range":null,"type":"vocal_separation"}]},"mutable_config":null,"name":"","new_version":"132.0.0","path":"","platform":{"app_id":359289,"app_source":"cc","app_version":"5.6.0","device_id":"b000ef05ad8a2c8de98905bbc4a2a13d","hard_disk_id":"98697f5b2672733057711c84e4b517c3","mac_address":"09861091e4eef2367b35d8703476edfc,3ab780bc59d11a00e1ba676c31de1115","os":"windows","os_version":"10.0.26100"},"relationships":[],"render_index_track_mode_on":true,"retouch_cover":null,"source":"default","static_cover_image_path":"##_draftpath_placeholder_0E685133-18CE-45ED-8CB8-2904A212EC80_##/draft_cover.jpg","time_marks":null,"tracks":[{"attribute":0,"flag":0,"id":"1A5FAF67-3818-4761-8EEF-59A169DBBC35","is_default_name":true,"name":"","segments":[{"caption_info":null,"cartoon":false,"clip":{"alpha":1.0,"flip":{"horizontal":false,"vertical":false},"rotation":0.0,"scale":{"x":1.0,"y":1.0},"transform":{"x":0.0,"y":0.0}},"color_correct_alg_result":"","common_keyframes":[],"desc":"","digital_human_template_group_id":"","enable_adjust":true,"enable_adjust_mask":false,"enable_color_correct_adjust":false,"enable_color_curves":true,"enable_color_match_adjust":false,"enable_color_wheels":true,"enable_hsl":false,"enable_lut":true,"enable_smart_color_adjust":false,"enable_video_mask":true,"extra_material_refs":["0565C924-A5A2-4ee5-A89A-1A7BCD0A25DE","AC029904-1309-412c-926B-000184298385","E36195B1-200C-455f-8103-356D8D795D5B","2EDB58B7-0D86-4fcd-B693-78A71E169898","7B74A884-0AC7-49a0-B863-54FBD38D279D"],"group_id":"","hdr_settings":{"intensity":1.0,"mode":1,"nits":1000},"id":"94D82936-AEAA-460f-AD1E-731D45B3885E","intensifies_audio":false,"is_loop":false,"is_placeholder":false,"is_tone_modify":false,"keyframe_refs":[],"last_nonzero_volume":1.0,"lyric_keyframes":null,"material_id":"915966C6-9B32-4f7b-AC05-5B48FC70BA17","raw_segment_id":"","render_index":0,"render_timerange":{"duration":0,"start":0},"responsive_layout":{"enable":false,"horizontal_pos_layout":0,"size_layout":0,"target_follow":"","vertical_pos_layout":0},"reverse":false,"source_timerange":{"duration":10000000,"start":0},"speed":1.0,"state":0,"target_timerange":{"duration":10000000,"start":0},"template_id":"","template_scene":"default","track_attribute":0,"track_render_index":0,"uniform_scale":{"on":true,"value":1.0},"visible":true,"volume":1.0},{"caption_info":null,"cartoon":false,"clip":{"alpha":1.0,"flip":{"horizontal":false,"vertical":false},"rotation":0.0,"scale":{"x":1.0,"y":1.0},"transform":{"x":0.0,"y":0.0}},"color_correct_alg_result":"","common_keyframes":[],"desc":"","digital_human_template_group_id":"","enable_adjust":true,"enable_adjust_mask":false,"enable_color_correct_adjust":false,"enable_color_curves":true,"enable_color_match_adjust":false,"enable_color_wheels":true,"enable_hsl":false,"enable_lut":true,"enable_smart_color_adjust":false,"enable_video_mask":true,"extra_material_refs":["2C98FAB4-FA89-448d-94CA-7E4AFE3EB4AD","8499517F-6EBB-4af6-BDC1-A830936F8075","84919F28-D7CD-4514-BCE8-3900D61E48EA","692918B6-699F-4d4c-ABDC-FB09CD848B72","DCB47958-21A6-4ba6-9F84-26177531857D","030AD6F0-D4BE-4280-8800-A586B81FBC62"],"group_id":"","hdr_settings":{"intensity":1.0,"mode":1,"nits":1000},"id":"F03B0D09-FC09-4f94-9A72-2E11E37EC2D4","intensifies_audio":false,"is_loop":false,"is_placeholder":false,"is_tone_modify":false,"keyframe_refs":[],"last_nonzero_volume":1.0,"lyric_keyframes":null,"material_id":"2E5CC151-EB68-46db-80B7-E8A744259049","raw_segment_id":"","render_index":0,"render_timerange":{"duration":0,"start":0},"responsive_layout":{"enable":false,"horizontal_pos_layout":0,"size_layout":0,"target_follow":"","vertical_pos_layout":0},"reverse":false,"source_timerange":{"duration":9466667,"start":533333},"speed":1.0,"state":0,"target_timerange":{"duration":9466666,"start":10000000},"template_id":"","template_scene":"default","track_attribute":0,"track_render_index":0,"uniform_scale":{"on":true,"value":1.0},"visible":true,"volume":1.0},{"caption_info":null,"cartoon":false,"clip":{"alpha":1.0,"flip":{"horizontal":false,"vertical":false},"rotation":0.0,"scale":{"x":1.0,"y":1.0},"transform":{"x":0.0,"y":0.0}},"color_correct_alg_result":"","common_keyframes":[],"desc":"","digital_human_template_group_id":"","enable_adjust":true,"enable_adjust_mask":false,"enable_color_correct_adjust":false,"enable_color_curves":true,"enable_color_match_adjust":false,"enable_color_wheels":true,"enable_hsl":false,"enable_lut":true,"enable_smart_color_adjust":false,"enable_video_mask":true,"extra_material_refs":["A9DD4BC9-F79F-4e9f-8AA4-AD7E1CF46F15","68550E12-DE40-4784-B252-C72809559FBE","F2619A23-08B4-4442-8AF6-4783286A1920","BAC37606-3872-4104-A706-D092A107C1C8","FC3D0C4D-4817-4b76-896D-8CA94D3C0264"],"group_id":"","hdr_settings":{"intensity":1.0,"mode":1,"nits":1000},"id":"F37E9771-DFDA-4536-A94E-A172E8D67EB9","intensifies_audio":false,"is_loop":false,"is_placeholder":false,"is_tone_modify":false,"keyframe_refs":[],"last_nonzero_volume":1.0,"lyric_keyframes":null,"material_id":"D9107C33-259D-4ea2-BD02-ED797F091782","raw_segment_id":"","render_index":0,"render_timerange":{"duration":0,"start":0},"responsive_layout":{"enable":false,"horizontal_pos_layout":0,"size_layout":0,"target_follow":"","vertical_pos_layout":0},"reverse":false,"source_timerange":{"duration":5366666,"start":0},"speed":1.0,"state":0,"target_timerange":{"duration":5366667,"start":19466666},"template_id":"","template_scene":"default","track_attribute":0,"track_render_index":0,"uniform_scale":{"on":true,"value":1.0},"visible":true,"volume":1.0},{"caption_info":null,"cartoon":false,"clip":{"alpha":1.0,"flip":{"horizontal":false,"vertical":false},"rotation":0.0,"scale":{"x":1.0,"y":1.0},"transform":{"x":0.0,"y":0.0}},"color_correct_alg_result":"","common_keyframes":[],"desc":"","digital_human_template_group_id":"","enable_adjust":true,"enable_adjust_mask":false,"enable_color_correct_adjust":false,"enable_color_curves":true,"enable_color_match_adjust":false,"enable_color_wheels":true,"enable_hsl":false,"enable_lut":true,"enable_smart_color_adjust":false,"enable_video_mask":true,"extra_material_refs":["CCCA05CA-BDE2-416a-9C8B-E58A7F555C57","2DF7F114-6F5F-4059-AEAE-49457C863960","E8589F27-D515-4a62-82A8-8C80C239AF28","92694E41-81A5-4cd3-8DFA-3F7A3E8365EB","9DE7BA0A-C542-4312-B6FA-9315E680A2F5"],"group_id":"","hdr_settings":{"intensity":1.0,"mode":1,"nits":1000},"id":"C68710C9-0055-4c5f-AE77-3A52C4FE7F3C","intensifies_audio":false,"is_loop":false,"is_placeholder":false,"is_tone_modify":false,"keyframe_refs":[],"last_nonzero_volume":1.0,"lyric_keyframes":null,"material_id":"CCB84237-09EE-4886-B780-82F0D1FE0232","raw_segment_id":"","render_index":0,"render_timerange":{"duration":0,"start":0},"responsive_layout":{"enable":false,"horizontal_pos_layout":0,"size_layout":0,"target_follow":"","vertical_pos_layout":0},"reverse":false,"source_timerange":{"duration":633334,"start":9366666},"speed":1.0,"state":0,"target_timerange":{"duration":633333,"start":24833333},"template_id":"","template_scene":"default","track_attribute":0,"track_render_index":0,"uniform_scale":{"on":true,"value":1.0},"visible":true,"volume":1.0},{"caption_info":null,"cartoon":false,"clip":{"alpha":1.0,"flip":{"horizontal":false,"vertical":false},"rotation":0.0,"scale":{"x":1.0,"y":1.0},"transform":{"x":0.0,"y":0.0}},"color_correct_alg_result":"","common_keyframes":[],"desc":"","digital_human_template_group_id":"","enable_adjust":true,"enable_adjust_mask":false,"enable_color_correct_adjust":false,"enable_color_curves":true,"enable_color_match_adjust":false,"enable_color_wheels":true,"enable_hsl":false,"enable_lut":true,"enable_smart_color_adjust":false,"enable_video_mask":true,"extra_material_refs":["306E4B32-64F7-40cd-887E-166AE539A0FF","4C3974E3-58BC-43b7-AC5E-D4C98841CB19","0608FBB4-7E41-4e2f-925A-64F3F1CFE91F","B3489D99-24DD-4711-890C-0DF1B6DA7E38","F114035D-2431-4cee-B20E-25BE53A7932E","3D204EF7-5E29-4b2a-8251-ACCEC0A113FC"],"group_id":"","hdr_settings":{"intensity":1.0,"mode":1,"nits":1000},"id":"0261D0D4-DBBC-404b-A323-CEE61D306336","intensifies_audio":false,"is_loop":false,"is_placeholder":false,"is_tone_modify":false,"keyframe_refs":[],"last_nonzero_volume":1.0,"lyric_keyframes":null,"material_id":"EEC23333-D4B2-484f-B60A-A30F5F7334B4","raw_segment_id":"","render_index":0,"render_timerange":{"duration":0,"start":0},"responsive_layout":{"enable":false,"horizontal_pos_layout":0,"size_layout":0,"target_follow":"","vertical_pos_layout":0},"reverse":false,"source_timerange":{"duration":7500000,"start":2500000},"speed":1.0,"state":0,"target_timerange":{"duration":7500000,"start":25466666},"template_id":"","template_scene":"default","track_attribute":0,"track_render_index":0,"uniform_scale":{"on":true,"value":1.0},"visible":true,"volume":1.0},{"caption_info":null,"cartoon":false,"clip":{"alpha":1.0,"flip":{"horizontal":false,"vertical":false},"rotation":0.0,"scale":{"x":1.0,"y":1.0},"transform":{"x":0.0,"y":0.0}},"color_correct_alg_result":"","common_keyframes":[],"desc":"","digital_human_template_group_id":"","enable_adjust":true,"enable_adjust_mask":false,"enable_color_correct_adjust":false,"enable_color_curves":true,"enable_color_match_adjust":false,"enable_color_wheels":true,"enable_hsl":false,"enable_lut":true,"enable_smart_color_adjust":false,"enable_video_mask":true,"extra_material_refs":["B46A94D6-F0E2-4525-B8C8-ED6C3C7ECAC7","CC7B181A-2A90-47be-87DC-D3D79F73D6A2","83886860-0121-47b8-AC60-973CEF945166","3EA3CBD0-A44E-40d0-B343-9E804E015791","2EB82040-7EAC-440d-B27F-9CCB50B1F754"],"group_id":"","hdr_settings":{"intensity":1.0,"mode":1,"nits":1000},"id":"6BD1EFCE-C090-4841-B3E4-CD4AD48172E4","intensifies_audio":false,"is_loop":false,"is_placeholder":false,"is_tone_modify":false,"keyframe_refs":[],"last_nonzero_volume":1.0,"lyric_keyframes":null,"material_id":"CBEA0B7E-B862-43c1-BF35-4B8E3877A793","raw_segment_id":"","render_index":0,"render_timerange":{"duration":0,"start":0},"responsive_layout":{"enable":false,"horizontal_pos_layout":0,"size_layout":0,"target_follow":"","vertical_pos_layout":0},"reverse":false,"source_timerange":{"duration":1633333,"start":0},"speed":1.0,"state":0,"target_timerange":{"duration":1633334,"start":32966666},"template_id":"","template_scene":"default","track_attribute":0,"track_render_index":0,"uniform_scale":{"on":true,"value":1.0},"visible":true,"volume":1.0},{"caption_info":null,"cartoon":false,"clip":{"alpha":1.0,"flip":{"horizontal":false,"vertical":false},"rotation":0.0,"scale":{"x":1.0,"y":1.0},"transform":{"x":0.0,"y":0.0}},"color_correct_alg_result":"","common_keyframes":[],"desc":"","digital_human_template_group_id":"","enable_adjust":true,"enable_adjust_mask":false,"enable_color_correct_adjust":false,"enable_color_curves":true,"enable_color_match_adjust":false,"enable_color_wheels":true,"enable_hsl":false,"enable_lut":true,"enable_smart_color_adjust":false,"enable_video_mask":true,"extra_material_refs":["74818EA7-6BE3-4b35-B313-1AAD9E946FDE","8ED1600D-2D5E-4827-B287-0855907B79A3","CAD6AB47-0841-4976-A7DD-561B29D4F39B","20BA10E5-9164-47bc-9170-DAAAA1B09B8C","B6F628B2-F2F6-433f-893E-E9B8170DEA84","D04170EE-1A59-4948-B4CE-B4D3ACB6401F","7C52AA97-6710-4a10-8D42-ECC0AB9899A7"],"group_id":"","hdr_settings":{"intensity":1.0,"mode":1,"nits":1000},"id":"EB2D628A-311B-4ebb-814A-14B94D5E132B","intensifies_audio":false,"is_loop":false,"is_placeholder":false,"is_tone_modify":false,"keyframe_refs":[],"last_nonzero_volume":1.0,"lyric_keyframes":null,"material_id":"74C82AED-7CE2-4882-9B0F-651716A3857E","raw_segment_id":"","render_index":0,"render_timerange":{"duration":0,"start":0},"responsive_layout":{"enable":false,"horizontal_pos_layout":0,"size_layout":0,"target_follow":"","vertical_pos_layout":0},"reverse":false,"source_timerange":{"duration":5233333,"start":0},"speed":1.0,"state":0,"target_timerange":{"duration":5233333,"start":34600000},"template_id":"","template_scene":"default","track_attribute":0,"track_render_index":0,"uniform_scale":{"on":true,"value":1.0},"visible":true,"volume":1.0},{"caption_info":null,"cartoon":false,"clip":{"alpha":1.0,"flip":{"horizontal":false,"vertical":false},"rotation":0.0,"scale":{"x":1.0,"y":1.0},"transform":{"x":0.0,"y":0.0}},"color_correct_alg_result":"","common_keyframes":[],"desc":"","digital_human_template_group_id":"","enable_adjust":true,"enable_adjust_mask":false,"enable_color_correct_adjust":false,"enable_color_curves":true,"enable_color_match_adjust":false,"enable_color_wheels":true,"enable_hsl":false,"enable_lut":true,"enable_smart_color_adjust":false,"enable_video_mask":true,"extra_material_refs":["6F63BFCC-E297-4f88-BAAB-8C01E174EFDF","E96DB97A-4FAF-4f7e-8791-3659A4ADB7A5","C17A36A8-4F6F-4060-B83D-11D3CAEBEE0E","F8757797-3A83-4d93-9BFF-8682CA46FA48","7D54229B-C0ED-4fac-8CD4-284C5BFB7D75","479C4BFB-310B-421b-83F2-0E54F818F42A","E85A50D7-120C-4e01-8066-B37530E174E7"],"group_id":"","hdr_settings":{"intensity":1.0,"mode":1,"nits":1000},"id":"53C18BDD-8DC7-44a2-A503-9A4A18661DCB","intensifies_audio":false,"is_loop":false,"is_placeholder":false,"is_tone_modify":false,"keyframe_refs":[],"last_nonzero_volume":1.0,"lyric_keyframes":null,"material_id":"513D9D92-C35F-498c-A662-07D14076E648","raw_segment_id":"","render_index":0,"render_timerange":{"duration":0,"start":0},"responsive_layout":{"enable":false,"horizontal_pos_layout":0,"size_layout":0,"target_follow":"","vertical_pos_layout":0},"reverse":false,"source_timerange":{"duration":2266667,"start":6133333},"speed":1.0,"state":0,"target_timerange":{"duration":2266667,"start":39833333},"template_id":"","template_scene":"default","track_attribute":0,"track_render_index":0,"uniform_scale":{"on":true,"value":1.0},"visible":true,"volume":1.0},{"caption_info":null,"cartoon":false,"clip":{"alpha":1.0,"flip":{"horizontal":false,"vertical":false},"rotation":0.0,"scale":{"x":1.0,"y":1.0},"transform":{"x":0.0,"y":0.0}},"color_correct_alg_result":"","common_keyframes":[],"desc":"","digital_human_template_group_id":"","enable_adjust":true,"enable_adjust_mask":false,"enable_color_correct_adjust":false,"enable_color_curves":true,"enable_color_match_adjust":false,"enable_color_wheels":true,"enable_hsl":false,"enable_lut":true,"enable_smart_color_adjust":false,"enable_video_mask":true,"extra_material_refs":["AFC81A8F-1CF9-43e2-AEDA-0D9CA6925B8D","06F596FB-F2E9-422c-887F-C20B8E12FF63","A47B025F-2EDA-4e9e-8085-646C281469DD","AAEA1E33-BF35-4602-9B9F-C208D4CFE90D","E6E05EFE-4B39-4a16-AA01-E01BED222688","2BDAA02F-D1A1-4afb-B7FE-6951169F9EE4"],"group_id":"","hdr_settings":{"intensity":1.0,"mode":1,"nits":1000},"id":"73615F54-BB2F-477e-AE0D-907B8E7C9734","intensifies_audio":false,"is_loop":false,"is_placeholder":false,"is_tone_modify":false,"keyframe_refs":[],"last_nonzero_volume":1.0,"lyric_keyframes":null,"material_id":"5DCF6717-33DB-4e6a-BEAC-E7D5BC7BE9CD","raw_segment_id":"","render_index":0,"render_timerange":{"duration":0,"start":0},"responsive_layout":{"enable":false,"horizontal_pos_layout":0,"size_layout":0,"target_follow":"","vertical_pos_layout":0},"reverse":false,"source_timerange":{"duration":2833334,"start":5666666},"speed":1.0,"state":0,"target_timerange":{"duration":2833333,"start":42100000},"template_id":"","template_scene":"default","track_attribute":0,"track_render_index":0,"uniform_scale":{"on":true,"value":1.0},"visible":true,"volume":1.0},{"caption_info":null,"cartoon":false,"clip":{"alpha":1.0,"flip":{"horizontal":false,"vertical":false},"rotation":0.0,"scale":{"x":1.0,"y":1.0},"transform":{"x":0.0,"y":0.0}},"color_correct_alg_result":"","common_keyframes":[],"desc":"","digital_human_template_group_id":"","enable_adjust":true,"enable_adjust_mask":false,"enable_color_correct_adjust":false,"enable_color_curves":true,"enable_color_match_adjust":false,"enable_color_wheels":true,"enable_hsl":false,"enable_lut":true,"enable_smart_color_adjust":false,"enable_video_mask":true,"extra_material_refs":["64F3F6CD-8189-462e-920A-21637BEEA82C","5B78B676-EC58-4569-BFAA-B96301374810","AE49038E-8B9D-44cc-B382-0585132E48EA","49D6E14D-AD1E-4b7f-AFEA-09105C98369B","D0AB2F8A-C17C-497b-AA02-E5EEB65F86B9","B0B3AE33-FDFF-4821-A9CA-6DC02FEB27B9"],"group_id":"","hdr_settings":{"intensity":1.0,"mode":1,"nits":1000},"id":"3DC270D5-7D1D-4662-984A-C1DA974F6984","intensifies_audio":false,"is_loop":false,"is_placeholder":false,"is_tone_modify":false,"keyframe_refs":[],"last_nonzero_volume":1.0,"lyric_keyframes":null,"material_id":"713EC91D-437B-4eda-B0DD-39DD0CAED067","raw_segment_id":"","render_index":0,"render_timerange":{"duration":0,"start":0},"responsive_layout":{"enable":false,"horizontal_pos_layout":0,"size_layout":0,"target_follow":"","vertical_pos_layout":0},"reverse":false,"source_timerange":{"duration":3233333,"start":0},"speed":1.0,"state":0,"target_timerange":{"duration":3233333,"start":44933333},"template_id":"","template_scene":"default","track_attribute":0,"track_render_index":0,"uniform_scale":{"on":true,"value":1.0},"visible":true,"volume":1.0},{"caption_info":null,"cartoon":false,"clip":{"alpha":1.0,"flip":{"horizontal":false,"vertical":false},"rotation":0.0,"scale":{"x":1.0,"y":1.0},"transform":{"x":0.0,"y":0.0}},"color_correct_alg_result":"","common_keyframes":[],"desc":"","digital_human_template_group_id":"","enable_adjust":true,"enable_adjust_mask":false,"enable_color_correct_adjust":false,"enable_color_curves":true,"enable_color_match_adjust":false,"enable_color_wheels":true,"enable_hsl":false,"enable_lut":true,"enable_smart_color_adjust":false,"enable_video_mask":true,"extra_material_refs":["DF194E9B-FB4A-4fbd-A23F-C1212117D27B","D90F72C7-01E5-4fc7-B8AB-BFC30EFFF13F","851EE3FE-3E34-4710-BC7C-0769A0E53287","4274DF99-1F67-41a4-925A-2E64ACC4C394","FE5F97A1-1596-499a-AD5B-106D0A3AAB60"],"group_id":"","hdr_settings":{"intensity":1.0,"mode":1,"nits":1000},"id":"12C20BDB-5E65-40bb-8AD5-DD2FA2D14F17","intensifies_audio":false,"is_loop":false,"is_placeholder":false,"is_tone_modify":false,"keyframe_refs":[],"last_nonzero_volume":1.0,"lyric_keyframes":null,"material_id":"C9EC87A6-A2B0-40bc-9A62-3B7EC3333718","raw_segment_id":"","render_index":0,"render_timerange":{"duration":0,"start":0},"responsive_layout":{"enable":false,"horizontal_pos_layout":0,"size_layout":0,"target_follow":"","vertical_pos_layout":0},"reverse":false,"source_timerange":{"duration":6633333,"start":0},"speed":1.0,"state":0,"target_timerange":{"duration":6633334,"start":48166666},"template_id":"","template_scene":"default","track_attribute":0,"track_render_index":0,"uniform_scale":{"on":true,"value":1.0},"visible":true,"volume":1.0},{"caption_info":null,"cartoon":false,"clip":{"alpha":1.0,"flip":{"horizontal":false,"vertical":false},"rotation":0.0,"scale":{"x":1.0,"y":1.0},"transform":{"x":0.0,"y":0.0}},"color_correct_alg_result":"","common_keyframes":[],"desc":"","digital_human_template_group_id":"","enable_adjust":true,"enable_adjust_mask":false,"enable_color_correct_adjust":false,"enable_color_curves":true,"enable_color_match_adjust":false,"enable_color_wheels":true,"enable_hsl":false,"enable_lut":true,"enable_smart_color_adjust":false,"enable_video_mask":true,"extra_material_refs":["A997DA61-A049-4183-B9EA-2B7272AFF17E","9A7FAC5E-F602-4728-9C32-BBEB370BED2F","E07C34B6-F19A-4731-BD6A-83599C67A6F0","F4B0B970-F621-4e9d-B5DA-F88D744BA57A","BE8FF5D3-81C2-4e3a-9865-2197C71B6850","A63E2A44-7222-4e3b-88AD-7DBE7EBD8E7E"],"group_id":"","hdr_settings":{"intensity":1.0,"mode":1,"nits":1000},"id":"C230D526-AC31-45eb-8F5E-94E2D019B994","intensifies_audio":false,"is_loop":false,"is_placeholder":false,"is_tone_modify":false,"keyframe_refs":[],"last_nonzero_volume":1.0,"lyric_keyframes":null,"material_id":"AC0FFD32-2113-4f0a-9256-196E8C330EE8","raw_segment_id":"","render_index":0,"render_timerange":{"duration":0,"start":0},"responsive_layout":{"enable":false,"horizontal_pos_layout":0,"size_layout":0,"target_follow":"","vertical_pos_layout":0},"reverse":false,"source_timerange":{"duration":2289003,"start":4030330},"speed":1.09,"state":0,"target_timerange":{"duration":2100000,"start":54800000},"template_id":"","template_scene":"default","track_attribute":0,"track_render_index":0,"uniform_scale":{"on":true,"value":1.0},"visible":true,"volume":1.0},{"caption_info":null,"cartoon":false,"clip":{"alpha":1.0,"flip":{"horizontal":false,"vertical":false},"rotation":0.0,"scale":{"x":1.0,"y":1.0},"transform":{"x":0.0,"y":0.0}},"color_correct_alg_result":"","common_keyframes":[],"desc":"","digital_human_template_group_id":"","enable_adjust":true,"enable_adjust_mask":false,"enable_color_correct_adjust":false,"enable_color_curves":true,"enable_color_match_adjust":false,"enable_color_wheels":true,"enable_hsl":false,"enable_lut":true,"enable_smart_color_adjust":false,"enable_video_mask":true,"extra_material_refs":["F9709FF4-236B-42af-8DC6-7C47A3B9F6B2","EF4D4EBC-CCBD-4211-965C-D2A760277AAF","F85DC1A9-32C1-40d7-9BDA-A1D2703E8900","A5846569-B0AA-4286-BD51-D8FCF340CD33","31AE4D55-E0B2-4e03-94B6-A9B2DCDEB974","02033B28-A9C9-4b5e-88E2-D2E7E78000D9","938A571C-3B5E-43f6-8202-ECC48DA253FC"],"group_id":"","hdr_settings":{"intensity":1.0,"mode":1,"nits":1000},"id":"654D0EBC-D6B9-467a-AAC9-597DAF0B70CF","intensifies_audio":false,"is_loop":false,"is_placeholder":false,"is_tone_modify":false,"keyframe_refs":[],"last_nonzero_volume":1.0,"lyric_keyframes":null,"material_id":"3554AB62-89F0-48fe-81C2-D1766A318B9B","raw_segment_id":"","render_index":0,"render_timerange":{"duration":0,"start":0},"responsive_layout":{"enable":false,"horizontal_pos_layout":0,"size_layout":0,"target_follow":"","vertical_pos_layout":0},"reverse":false,"source_timerange":{"duration":3742332,"start":6333333},"speed":1.09,"state":0,"target_timerange":{"duration":3433333,"start":56900000},"template_id":"","template_scene":"default","track_attribute":0,"track_render_index":0,"uniform_scale":{"on":true,"value":1.0},"visible":true,"volume":1.0},{"caption_info":null,"cartoon":false,"clip":{"alpha":1.0,"flip":{"horizontal":false,"vertical":false},"rotation":0.0,"scale":{"x":1.0,"y":1.0},"transform":{"x":0.0,"y":0.0}},"color_correct_alg_result":"","common_keyframes":[],"desc":"","digital_human_template_group_id":"","enable_adjust":true,"enable_adjust_mask":false,"enable_color_correct_adjust":false,"enable_color_curves":true,"enable_color_match_adjust":false,"enable_color_wheels":true,"enable_hsl":false,"enable_lut":true,"enable_smart_color_adjust":false,"enable_video_mask":true,"extra_material_refs":["A7C12D7F-0F2E-4096-9B49-3CECCAB1683F","004BE01A-54C9-4c35-B946-1EB619F77051","9E0D2DD9-1F5C-4553-B71E-33B4D44970C7","4FCB2238-50CF-486e-A6B9-92D0FFF21132","8E5C5761-89EC-4558-9C00-3753EAFE10DF","34065D7A-63BC-42c3-BF8C-975B656D8B76","20B30DBB-D2F0-42bc-A0E6-0A30BD4AA6E8"],"group_id":"","hdr_settings":{"intensity":1.0,"mode":1,"nits":1000},"id":"D44F0F54-1842-4052-8CD6-508E8E96BB06","intensifies_audio":false,"is_loop":false,"is_placeholder":false,"is_tone_modify":false,"keyframe_refs":[],"last_nonzero_volume":1.0,"lyric_keyframes":null,"material_id":"D7D94FAE-0F86-48cc-81BE-A706A6CFC56B","raw_segment_id":"","render_index":0,"render_timerange":{"duration":0,"start":0},"responsive_layout":{"enable":false,"horizontal_pos_layout":0,"size_layout":0,"target_follow":"","vertical_pos_layout":0},"reverse":false,"source_timerange":{"duration":4566667,"start":5433333},"speed":1.0,"state":0,"target_timerange":{"duration":4566667,"start":60333333},"template_id":"","template_scene":"default","track_attribute":0,"track_render_index":0,"uniform_scale":{"on":true,"value":1.0},"visible":true,"volume":1.0},{"caption_info":null,"cartoon":false,"clip":{"alpha":1.0,"flip":{"horizontal":false,"vertical":false},"rotation":0.0,"scale":{"x":1.0,"y":1.0},"transform":{"x":0.0,"y":0.0}},"color_correct_alg_result":"","common_keyframes":[],"desc":"","digital_human_template_group_id":"","enable_adjust":true,"enable_adjust_mask":false,"enable_color_correct_adjust":false,"enable_color_curves":true,"enable_color_match_adjust":false,"enable_color_wheels":true,"enable_hsl":false,"enable_lut":true,"enable_smart_color_adjust":false,"enable_video_mask":true,"extra_material_refs":["AD1704D1-D023-4cd7-B791-8319DC0DAEED","7204192E-D149-4be7-84E4-0DD17A2325F7","A5ECA7D3-6326-4a87-9311-7AE196DECB8B","84F14AD4-DCB4-45ec-B5E6-7708CFC7AC0E","1CDC0BCC-9310-4a11-A850-4A3F861B2A43","74CD29A6-1481-4310-BE08-EFEC8B80207A"],"group_id":"","hdr_settings":{"intensity":1.0,"mode":1,"nits":1000},"id":"A9825FD0-F9FF-4f08-99C1-105A647E1518","intensifies_audio":false,"is_loop":false,"is_placeholder":false,"is_tone_modify":false,"keyframe_refs":[],"last_nonzero_volume":1.0,"lyric_keyframes":null,"material_id":"2CDDE467-D671-4314-848F-A6EF4F553F2F","raw_segment_id":"","render_index":0,"render_timerange":{"duration":0,"start":0},"responsive_layout":{"enable":false,"horizontal_pos_layout":0,"size_layout":0,"target_follow":"","vertical_pos_layout":0},"reverse":false,"source_timerange":{"duration":4733333,"start":0},"speed":1.0,"state":0,"target_timerange":{"duration":4733333,"start":64900000},"template_id":"","template_scene":"default","track_attribute":0,"track_render_index":0,"uniform_scale":{"on":true,"value":1.0},"visible":true,"volume":1.0},{"caption_info":null,"cartoon":false,"clip":{"alpha":1.0,"flip":{"horizontal":false,"vertical":false},"rotation":0.0,"scale":{"x":1.0,"y":1.0},"transform":{"x":0.0,"y":0.0}},"color_correct_alg_result":"","common_keyframes":[],"desc":"","digital_human_template_group_id":"","enable_adjust":true,"enable_adjust_mask":false,"enable_color_correct_adjust":false,"enable_color_curves":true,"enable_color_match_adjust":false,"enable_color_wheels":true,"enable_hsl":false,"enable_lut":true,"enable_smart_color_adjust":false,"enable_video_mask":true,"extra_material_refs":["2A45C0EA-DDC2-47e4-9B9D-ECCD0DD12A52","758A90C0-63DB-4e78-939D-10EAB60191EF","3409B313-5AE6-4974-8D7D-FD3EFCA8C525","AED5318E-D045-406c-B27F-1898A680CCD2","E4F32C45-01C3-4780-B3B1-076CA9399578","34F6D246-4D77-410e-8341-F7F9CC54DBD0"],"group_id":"","hdr_settings":{"intensity":1.0,"mode":1,"nits":1000},"id":"BD63DB35-68F2-4d08-B02D-4EE4520ADC0C","intensifies_audio":false,"is_loop":false,"is_placeholder":false,"is_tone_modify":false,"keyframe_refs":[],"last_nonzero_volume":1.0,"lyric_keyframes":null,"material_id":"A197ADB7-68B6-4a6a-9479-C61B020A8752","raw_segment_id":"","render_index":0,"render_timerange":{"duration":0,"start":0},"responsive_layout":{"enable":false,"horizontal_pos_layout":0,"size_layout":0,"target_follow":"","vertical_pos_layout":0},"reverse":false,"source_timerange":{"duration":1733333,"start":4200000},"speed":1.0,"state":0,"target_timerange":{"duration":1733333,"start":69633333},"template_id":"","template_scene":"default","track_attribute":0,"track_render_index":0,"uniform_scale":{"on":true,"value":1.0},"visible":true,"volume":1.0},{"caption_info":null,"cartoon":false,"clip":{"alpha":1.0,"flip":{"horizontal":false,"vertical":false},"rotation":0.0,"scale":{"x":1.0,"y":1.0},"transform":{"x":0.0,"y":0.0}},"color_correct_alg_result":"","common_keyframes":[],"desc":"","digital_human_template_group_id":"","enable_adjust":true,"enable_adjust_mask":false,"enable_color_correct_adjust":false,"enable_color_curves":true,"enable_color_match_adjust":false,"enable_color_wheels":true,"enable_hsl":false,"enable_lut":true,"enable_smart_color_adjust":false,"enable_video_mask":true,"extra_material_refs":["83C8A6D5-27D8-415b-AB9A-7CF9C2FADF17","90C93226-75A0-47f2-A21D-EDD878BB93B7","49B1551A-F827-464e-A52E-98908BF78EBB","662952EB-A472-4d4c-87DB-59175DADA730","D13B09CA-9746-481f-A00A-75C9E132ED52","00B90AA8-743F-4dc0-AB30-7F7A6B100561"],"group_id":"","hdr_settings":{"intensity":1.0,"mode":1,"nits":1000},"id":"9F2D6DCA-DCB0-4910-9183-1B84FBCA7C58","intensifies_audio":false,"is_loop":false,"is_placeholder":false,"is_tone_modify":false,"keyframe_refs":[],"last_nonzero_volume":1.0,"lyric_keyframes":null,"material_id":"25AB3CED-4E81-4ef5-AE7A-1527508BC4A4","raw_segment_id":"","render_index":0,"render_timerange":{"duration":0,"start":0},"responsive_layout":{"enable":false,"horizontal_pos_layout":0,"size_layout":0,"target_follow":"","vertical_pos_layout":0},"reverse":false,"source_timerange":{"duration":4066668,"start":5966666},"speed":2.0,"state":0,"target_timerange":{"duration":2033334,"start":71366666},"template_id":"","template_scene":"default","track_attribute":0,"track_render_index":0,"uniform_scale":{"on":true,"value":1.0},"visible":true,"volume":1.0},{"caption_info":null,"cartoon":false,"clip":{"alpha":1.0,"flip":{"horizontal":false,"vertical":false},"rotation":0.0,"scale":{"x":1.0,"y":1.0},"transform":{"x":0.0,"y":0.0}},"color_correct_alg_result":"","common_keyframes":[],"desc":"","digital_human_template_group_id":"","enable_adjust":true,"enable_adjust_mask":false,"enable_color_correct_adjust":false,"enable_color_curves":true,"enable_color_match_adjust":false,"enable_color_wheels":true,"enable_hsl":false,"enable_lut":true,"enable_smart_color_adjust":false,"enable_video_mask":true,"extra_material_refs":["3AA1E08D-8C5E-42b7-B5E6-BC4E9A1B2ADE","E391D58A-AAA9-4121-9C76-0BAC34155DD0","254F1F9C-8BBF-4430-BE2F-90ABF98D3BA9","64521777-74AD-44d2-B68A-D72F29B2B5D7","3A15F2B5-B9E0-45ca-98C7-5911CCF20059","4581486F-6859-415b-930A-850D05AE0D8F"],"group_id":"","hdr_settings":{"intensity":1.0,"mode":1,"nits":1000},"id":"9DB721D7-3F7E-47f6-8FF9-0A291BC6D957","intensifies_audio":false,"is_loop":false,"is_placeholder":false,"is_tone_modify":false,"keyframe_refs":[],"last_nonzero_volume":1.0,"lyric_keyframes":null,"material_id":"84451F06-0334-4991-870E-38F49C6A1CC1","raw_segment_id":"","render_index":0,"render_timerange":{"duration":0,"start":0},"responsive_layout":{"enable":false,"horizontal_pos_layout":0,"size_layout":0,"target_follow":"","vertical_pos_layout":0},"reverse":false,"source_timerange":{"duration":4200000,"start":933335},"speed":2.0,"state":0,"target_timerange":{"duration":2100000,"start":73400000},"template_id":"","template_scene":"default","track_attribute":0,"track_render_index":0,"uniform_scale":{"on":true,"value":1.0},"visible":true,"volume":1.0},{"caption_info":null,"cartoon":false,"clip":{"alpha":1.0,"flip":{"horizontal":false,"vertical":false},"rotation":0.0,"scale":{"x":1.0,"y":1.0},"transform":{"x":0.0,"y":0.0}},"color_correct_alg_result":"","common_keyframes":[],"desc":"","digital_human_template_group_id":"","enable_adjust":true,"enable_adjust_mask":false,"enable_color_correct_adjust":false,"enable_color_curves":true,"enable_color_match_adjust":false,"enable_color_wheels":true,"enable_hsl":false,"enable_lut":true,"enable_smart_color_adjust":false,"enable_video_mask":true,"extra_material_refs":["1EE54D44-19AB-4e00-8FA6-46F1B26E1C33","F4FE8E37-7770-439a-8EA7-36291ACEE7C3","8D5BB3F1-DAAE-4bc4-8069-27DB6AA281BA","C9074EC2-1DDD-4040-BBEC-3C512932F89E","1DD2BE26-66C1-4910-8CDA-130AA20EE6BC","05D2A044-D80A-43fe-AF42-7D365E04B0BA"],"group_id":"","hdr_settings":{"intensity":1.0,"mode":1,"nits":1000},"id":"6B665A70-E679-46c5-9F91-56329427B694","intensifies_audio":false,"is_loop":false,"is_placeholder":false,"is_tone_modify":false,"keyframe_refs":[],"last_nonzero_volume":1.0,"lyric_keyframes":null,"material_id":"ED1B00C6-DAA5-4294-AA67-12A601732D19","raw_segment_id":"","render_index":0,"render_timerange":{"duration":0,"start":0},"responsive_layout":{"enable":false,"horizontal_pos_layout":0,"size_layout":0,"target_follow":"","vertical_pos_layout":0},"reverse":false,"source_timerange":{"duration":4866666,"start":5166666},"speed":2.0,"state":0,"target_timerange":{"duration":2433333,"start":75500000},"template_id":"","template_scene":"default","track_attribute":0,"track_render_index":0,"uniform_scale":{"on":true,"value":1.0},"visible":true,"volume":1.0},{"caption_info":null,"cartoon":false,"clip":{"alpha":1.0,"flip":{"horizontal":false,"vertical":false},"rotation":0.0,"scale":{"x":1.0,"y":1.0},"transform":{"x":0.0,"y":0.0}},"color_correct_alg_result":"","common_keyframes":[],"desc":"","digital_human_template_group_id":"","enable_adjust":true,"enable_adjust_mask":false,"enable_color_correct_adjust":false,"enable_color_curves":true,"enable_color_match_adjust":false,"enable_color_wheels":true,"enable_hsl":false,"enable_lut":true,"enable_smart_color_adjust":false,"enable_video_mask":true,"extra_material_refs":["6341B9AF-8C3C-43a1-AC00-CE117F79D311","59FA7BB0-25C9-4f91-AC4A-AD4F7A03E4DD","6A48303E-77BB-4947-929B-496447B5FE45","5012E6A6-D212-4d65-8A32-AF7BB63622DF","A9407BF4-C170-4bad-A9D3-11FC976BA790","E829B799-71DC-418a-B919-93787D95EEBA"],"group_id":"","hdr_settings":{"intensity":1.0,"mode":1,"nits":1000},"id":"F99CF391-C400-45ee-8258-64EDF2309722","intensifies_audio":false,"is_loop":false,"is_placeholder":false,"is_tone_modify":false,"keyframe_refs":[],"last_nonzero_volume":1.0,"lyric_keyframes":null,"material_id":"C8C3C64A-401A-4802-82F0-8C0B7879F02A","raw_segment_id":"","render_index":0,"render_timerange":{"duration":0,"start":0},"responsive_layout":{"enable":false,"horizontal_pos_layout":0,"size_layout":0,"target_follow":"","vertical_pos_layout":0},"reverse":false,"source_timerange":{"duration":1600000,"start":633333},"speed":2.0,"state":0,"target_timerange":{"duration":800000,"start":77933333},"template_id":"","template_scene":"default","track_attribute":0,"track_render_index":0,"uniform_scale":{"on":true,"value":1.0},"visible":true,"volume":1.0},{"caption_info":null,"cartoon":false,"clip":{"alpha":1.0,"flip":{"horizontal":false,"vertical":false},"rotation":0.0,"scale":{"x":1.0,"y":1.0},"transform":{"x":0.0,"y":0.0}},"color_correct_alg_result":"","common_keyframes":[],"desc":"","digital_human_template_group_id":"","enable_adjust":true,"enable_adjust_mask":false,"enable_color_correct_adjust":false,"enable_color_curves":true,"enable_color_match_adjust":false,"enable_color_wheels":true,"enable_hsl":false,"enable_lut":true,"enable_smart_color_adjust":false,"enable_video_mask":true,"extra_material_refs":["5B822A46-5CF6-46fd-A07A-EF0A2105E860","A5853C0A-3A68-4767-BE19-CD9EAF894626","0D77CF8F-4A86-4a12-ADDA-87D808A681BB","8223A00D-D796-43a9-B974-838590F9D13A","C3869B7C-2BFC-47fc-BAE3-105AACB2EA29","0C6D1682-2F24-48c0-8C51-0B9B7DA0F9F9"],"group_id":"","hdr_settings":{"intensity":1.0,"mode":1,"nits":1000},"id":"11451DCA-98FB-42ab-972E-5861EC1E2EEF","intensifies_audio":false,"is_loop":false,"is_placeholder":false,"is_tone_modify":true,"keyframe_refs":[],"last_nonzero_volume":1.0,"lyric_keyframes":null,"material_id":"1FD3C6F4-E38D-448d-8FD1-A053815731D4","raw_segment_id":"","render_index":0,"render_timerange":{"duration":0,"start":0},"responsive_layout":{"enable":false,"horizontal_pos_layout":0,"size_layout":0,"target_follow":"","vertical_pos_layout":0},"reverse":false,"source_timerange":{"duration":7700001,"start":2233333},"speed":3.0,"state":0,"target_timerange":{"duration":2566667,"start":78733333},"template_id":"","template_scene":"default","track_attribute":0,"track_render_index":0,"uniform_scale":{"on":true,"value":1.0},"visible":true,"volume":1.0},{"caption_info":null,"cartoon":false,"clip":{"alpha":1.0,"flip":{"horizontal":false,"vertical":false},"rotation":0.0,"scale":{"x":1.0,"y":1.0},"transform":{"x":0.0,"y":0.0}},"color_correct_alg_result":"","common_keyframes":[],"desc":"","digital_human_template_group_id":"","enable_adjust":true,"enable_adjust_mask":false,"enable_color_correct_adjust":false,"enable_color_curves":true,"enable_color_match_adjust":false,"enable_color_wheels":true,"enable_hsl":false,"enable_lut":true,"enable_smart_color_adjust":false,"enable_video_mask":true,"extra_material_refs":["FF3AA503-CE98-4b7f-BEC0-86828CEA6A88","F0DB4A18-2709-4d40-B264-2AAEE21CC54F","607F4923-13D3-4372-9E62-261CEDB3D959","042E36A4-7C42-4d37-8207-B06C463A4870","F6F3CBE7-FE37-4073-B59B-88436B5A87BC","0F34A6AD-1AEE-4d4f-8DBF-C71CD8C0CB9C"],"group_id":"","hdr_settings":{"intensity":1.0,"mode":1,"nits":1000},"id":"C88734DC-B259-4742-9EA5-AE5769CB1F2A","intensifies_audio":false,"is_loop":false,"is_placeholder":false,"is_tone_modify":true,"keyframe_refs":[],"last_nonzero_volume":1.0,"lyric_keyframes":null,"material_id":"863CBBF0-AE43-4e36-903C-F07FE0C1CA46","raw_segment_id":"","render_index":0,"render_timerange":{"duration":0,"start":0},"responsive_layout":{"enable":false,"horizontal_pos_layout":0,"size_layout":0,"target_follow":"","vertical_pos_layout":0},"reverse":false,"source_timerange":{"duration":9499998,"start":566666},"speed":3.0,"state":0,"target_timerange":{"duration":3166666,"start":81300000},"template_id":"","template_scene":"default","track_attribute":0,"track_render_index":0,"uniform_scale":{"on":true,"value":1.0},"visible":true,"volume":1.0},{"caption_info":null,"cartoon":false,"clip":{"alpha":1.0,"flip":{"horizontal":false,"vertical":false},"rotation":0.0,"scale":{"x":1.0,"y":1.0},"transform":{"x":0.0,"y":0.0}},"color_correct_alg_result":"","common_keyframes":[],"desc":"","digital_human_template_group_id":"","enable_adjust":true,"enable_adjust_mask":false,"enable_color_correct_adjust":false,"enable_color_curves":true,"enable_color_match_adjust":false,"enable_color_wheels":true,"enable_hsl":false,"enable_lut":true,"enable_smart_color_adjust":false,"enable_video_mask":true,"extra_material_refs":["F947927D-DA26-4265-8F99-75C15865CB62","C34E82B3-5DC2-48db-9DAC-AF136FD53E66","B27252D9-FA40-4df5-AB81-B8E2669721FA","DA892F73-1127-4c7a-9AD0-409668080CE2","ED2E5220-4E2F-4915-B1FB-4E622087EDF8","B3F06A02-B403-4ff6-A835-C21F3B72DF6D"],"group_id":"","hdr_settings":{"intensity":1.0,"mode":1,"nits":1000},"id":"054DB5DD-D7EA-49d4-84CF-EDF89F7A558F","intensifies_audio":false,"is_loop":false,"is_placeholder":false,"is_tone_modify":true,"keyframe_refs":[],"last_nonzero_volume":1.0,"lyric_keyframes":null,"material_id":"DF4D806B-78CA-4567-A554-8F58F72BA298","raw_segment_id":"","render_index":0,"render_timerange":{"duration":0,"start":0},"responsive_layout":{"enable":false,"horizontal_pos_layout":0,"size_layout":0,"target_follow":"","vertical_pos_layout":0},"reverse":false,"source_timerange":{"duration":4300000,"start":600000},"speed":3.0,"state":0,"target_timerange":{"duration":1433334,"start":84466666},"template_id":"","template_scene":"default","track_attribute":0,"track_render_index":0,"uniform_scale":{"on":true,"value":1.0},"visible":true,"volume":1.0},{"caption_info":null,"cartoon":false,"clip":{"alpha":1.0,"flip":{"horizontal":false,"vertical":false},"rotation":0.0,"scale":{"x":1.0,"y":1.0},"transform":{"x":0.0,"y":0.0}},"color_correct_alg_result":"","common_keyframes":[],"desc":"","digital_human_template_group_id":"","enable_adjust":true,"enable_adjust_mask":false,"enable_color_correct_adjust":false,"enable_color_curves":true,"enable_color_match_adjust":false,"enable_color_wheels":true,"enable_hsl":false,"enable_lut":true,"enable_smart_color_adjust":false,"enable_video_mask":true,"extra_material_refs":["505AA420-7AB8-4342-B067-B53F12AD6253","A662B79D-6C19-443c-8A97-A53D4F71754A","042474FF-49DB-4829-82A0-FA1974A6E8B8","9387F03B-4232-4da6-9E0A-5BD4F8237391","2F4C33EF-F310-442e-8893-BB208065F884","AB73A938-9FFF-4fa5-89F2-9392ED459D7E"],"group_id":"","hdr_settings":{"intensity":1.0,"mode":1,"nits":1000},"id":"3EE5A306-101C-4017-AE6F-84DF88ECF2A1","intensifies_audio":false,"is_loop":false,"is_placeholder":false,"is_tone_modify":true,"keyframe_refs":[],"last_nonzero_volume":1.0,"lyric_keyframes":null,"material_id":"221D426B-EA07-46a9-82DD-64FFE2E19DD2","raw_segment_id":"","render_index":0,"render_timerange":{"duration":0,"start":0},"responsive_layout":{"enable":false,"horizontal_pos_layout":0,"size_layout":0,"target_follow":"","vertical_pos_layout":0},"reverse":false,"source_timerange":{"duration":5000000,"start":4900000},"speed":2.0,"state":0,"target_timerange":{"duration":2500000,"start":85900000},"template_id":"","template_scene":"default","track_attribute":0,"track_render_index":0,"uniform_scale":{"on":true,"value":1.0},"visible":true,"volume":1.0},{"caption_info":null,"cartoon":false,"clip":{"alpha":1.0,"flip":{"horizontal":false,"vertical":false},"rotation":0.0,"scale":{"x":1.0,"y":1.0},"transform":{"x":0.0,"y":0.0}},"color_correct_alg_result":"","common_keyframes":[],"desc":"","digital_human_template_group_id":"","enable_adjust":true,"enable_adjust_mask":false,"enable_color_correct_adjust":false,"enable_color_curves":true,"enable_color_match_adjust":false,"enable_color_wheels":true,"enable_hsl":false,"enable_lut":true,"enable_smart_color_adjust":false,"enable_video_mask":true,"extra_material_refs":["32B6F5CA-32B8-4930-896C-A918224D8D2C","73FE42CB-4FD2-4b50-A96B-5E98E246FF0E","ED5ABF65-5D83-4ff3-B021-45C481833606","CCF8E6FE-F623-44b5-AA6F-F1F6C805120F","541E8C37-38C0-47f2-A9D2-3316B101FBA4","846A5032-09CA-4450-B277-E20430EF0268","B767E691-D533-4feb-87F5-C1BC9BA480F4"],"group_id":"","hdr_settings":{"intensity":1.0,"mode":1,"nits":1000},"id":"E701AA24-3E87-4ce0-903E-380CF52ACF44","intensifies_audio":false,"is_loop":false,"is_placeholder":false,"is_tone_modify":false,"keyframe_refs":[],"last_nonzero_volume":1.0,"lyric_keyframes":null,"material_id":"C6CC1F17-34A2-4926-BDFD-918F5725F0C4","raw_segment_id":"","render_index":0,"render_timerange":{"duration":0,"start":0},"responsive_layout":{"enable":false,"horizontal_pos_layout":0,"size_layout":0,"target_follow":"","vertical_pos_layout":0},"reverse":false,"source_timerange":{"duration":3566666,"start":400000},"speed":1.0,"state":0,"target_timerange":{"duration":3566666,"start":88400000},"template_id":"","template_scene":"default","track_attribute":0,"track_render_index":0,"uniform_scale":{"on":true,"value":1.0},"visible":true,"volume":1.0},{"caption_info":null,"cartoon":false,"clip":{"alpha":1.0,"flip":{"horizontal":false,"vertical":false},"rotation":0.0,"scale":{"x":1.0,"y":1.0},"transform":{"x":0.0,"y":0.0}},"color_correct_alg_result":"","common_keyframes":[],"desc":"","digital_human_template_group_id":"","enable_adjust":true,"enable_adjust_mask":false,"enable_color_correct_adjust":false,"enable_color_curves":true,"enable_color_match_adjust":false,"enable_color_wheels":true,"enable_hsl":false,"enable_lut":true,"enable_smart_color_adjust":false,"enable_video_mask":true,"extra_material_refs":["244F7DA6-BA98-406b-8502-8CEEF6118491","7030D4FB-179A-4a86-8721-3C715A6CDDB1","094E9E0F-AEBF-442f-9D67-1F17D2CC3B88","EBC6DB7B-6250-416e-857B-81DE52084FF8","61CAFA95-5296-4439-908D-CF9C47C583D4","FCF7B7CF-D3B6-4835-923A-343A1754E80C"],"group_id":"","hdr_settings":{"intensity":1.0,"mode":1,"nits":1000},"id":"E2A28690-FAD7-4c6e-BF7C-6AA9295DD649","intensifies_audio":false,"is_loop":false,"is_placeholder":false,"is_tone_modify":false,"keyframe_refs":[],"last_nonzero_volume":1.0,"lyric_keyframes":null,"material_id":"1351CAAF-8606-483a-A7C4-F1CF5C76DD1E","raw_segment_id":"","render_index":0,"render_timerange":{"duration":0,"start":0},"responsive_layout":{"enable":false,"horizontal_pos_layout":0,"size_layout":0,"target_follow":"","vertical_pos_layout":0},"reverse":false,"source_timerange":{"duration":2508666,"start":0},"speed":0.53,"state":0,"target_timerange":{"duration":4733334,"start":91966666},"template_id":"","template_scene":"default","track_attribute":0,"track_render_index":0,"uniform_scale":{"on":true,"value":1.0},"visible":true,"volume":1.0}],"type":"video"},{"attribute":0,"flag":0,"id":"5DD9C427-F6B3-4f63-80A4-42BFDE3E0DD8","is_default_name":true,"name":"","segments":[{"caption_info":null,"cartoon":false,"clip":null,"color_correct_alg_result":"","common_keyframes":[],"desc":"","digital_human_template_group_id":"","enable_adjust":false,"enable_adjust_mask":false,"enable_color_correct_adjust":false,"enable_color_curves":true,"enable_color_match_adjust":false,"enable_color_wheels":true,"enable_hsl":false,"enable_lut":false,"enable_smart_color_adjust":false,"enable_video_mask":true,"extra_material_refs":["13610DEF-25DF-47b6-B46E-5D5E173BDF21","D74012A3-A32B-41c0-BBB8-B31758C7B7E3","5E1D72B4-A78D-4426-A16E-B43DC6161DC4","464A835E-F46A-4dcc-873E-9FADC5BBD882","BF7A0285-F406-4c99-AD36-87C7BF97C450"],"group_id":"","hdr_settings":null,"id":"3A004639-5559-4989-A025-AD931D39456E","intensifies_audio":false,"is_loop":false,"is_placeholder":false,"is_tone_modify":false,"keyframe_refs":[],"last_nonzero_volume":1.0,"lyric_keyframes":null,"material_id":"B8432A95-8951-4417-9C36-9B0CC234322F","raw_segment_id":"","render_index":0,"render_timerange":{"duration":0,"start":0},"responsive_layout":{"enable":false,"horizontal_pos_layout":0,"size_layout":0,"target_follow":"","vertical_pos_layout":0},"reverse":false,"source_timerange":{"duration":90233333,"start":0},"speed":1.0,"state":0,"target_timerange":{"duration":90233333,"start":0},"template_id":"","template_scene":"default","track_attribute":0,"track_render_index":1,"uniform_scale":null,"visible":true,"volume":1.0}],"type":"audio"}],"uneven_animation_template_info":{"composition":"","content":"","order":"","sub_template_info_list":[]},"update_time":0,"version":360000}